<mxfile host="app.diagrams.net" modified="2023-05-16T23:52:40.985Z" agent="Mozilla/5.0 (X11; Linux x86_64) AppleWebKit/537.36 (KHTML, like Gecko) Chrome/112.0.0.0 Safari/537.36" etag="yldXoOy_IGkPu8aeM7iS" version="21.3.2" type="github">
  <diagram id="C5RBs43oDa-KdzZeNtuy" name="Page-1">
    <mxGraphModel dx="1434" dy="788" grid="1" gridSize="10" guides="1" tooltips="1" connect="1" arrows="1" fold="1" page="1" pageScale="1" pageWidth="827" pageHeight="1169" math="0" shadow="0">
      <root>
        <mxCell id="WIyWlLk6GJQsqaUBKTNV-0" />
        <mxCell id="WIyWlLk6GJQsqaUBKTNV-1" parent="WIyWlLk6GJQsqaUBKTNV-0" />
        <mxCell id="WIyWlLk6GJQsqaUBKTNV-2" value="" style="rounded=0;html=1;jettySize=auto;orthogonalLoop=1;fontSize=11;endArrow=block;endFill=0;endSize=8;strokeWidth=1;shadow=0;labelBackgroundColor=none;edgeStyle=orthogonalEdgeStyle;" parent="WIyWlLk6GJQsqaUBKTNV-1" source="WIyWlLk6GJQsqaUBKTNV-3" target="WIyWlLk6GJQsqaUBKTNV-6" edge="1">
          <mxGeometry relative="1" as="geometry" />
        </mxCell>
        <mxCell id="s_xDTOq8JZx-aqZbNe94-7" style="edgeStyle=orthogonalEdgeStyle;rounded=0;orthogonalLoop=1;jettySize=auto;html=1;entryX=0;entryY=0.5;entryDx=0;entryDy=0;fontColor=#0066CC;strokeColor=#9AC7BF;" edge="1" parent="WIyWlLk6GJQsqaUBKTNV-1" source="WIyWlLk6GJQsqaUBKTNV-3" target="s_xDTOq8JZx-aqZbNe94-6">
          <mxGeometry relative="1" as="geometry" />
        </mxCell>
        <mxCell id="WIyWlLk6GJQsqaUBKTNV-3" value="Obtains new samples via s3 Trigger" style="rounded=1;whiteSpace=wrap;html=1;fontSize=12;glass=0;strokeWidth=1;shadow=0;fontStyle=1" parent="WIyWlLk6GJQsqaUBKTNV-1" vertex="1">
          <mxGeometry x="90" y="80" width="220" height="110" as="geometry" />
        </mxCell>
        <mxCell id="WIyWlLk6GJQsqaUBKTNV-4" value="" style="rounded=0;html=1;jettySize=auto;orthogonalLoop=1;fontSize=11;endArrow=block;endFill=0;endSize=8;strokeWidth=1;shadow=0;labelBackgroundColor=none;edgeStyle=orthogonalEdgeStyle;" parent="WIyWlLk6GJQsqaUBKTNV-1" source="WIyWlLk6GJQsqaUBKTNV-6" target="WIyWlLk6GJQsqaUBKTNV-10" edge="1">
          <mxGeometry x="0.6667" y="-20" relative="1" as="geometry">
            <mxPoint as="offset" />
          </mxGeometry>
        </mxCell>
        <mxCell id="WIyWlLk6GJQsqaUBKTNV-6" value="&lt;font style=&quot;font-size: 11px;&quot;&gt;Update Necessary Databases&lt;/font&gt;" style="rhombus;whiteSpace=wrap;html=1;shadow=0;fontFamily=Helvetica;fontSize=12;align=center;strokeWidth=1;spacing=6;spacingTop=-4;fontStyle=1" parent="WIyWlLk6GJQsqaUBKTNV-1" vertex="1">
          <mxGeometry x="127.5" y="310" width="145" height="100" as="geometry" />
        </mxCell>
        <mxCell id="WIyWlLk6GJQsqaUBKTNV-9" value="" style="edgeStyle=orthogonalEdgeStyle;rounded=0;html=1;jettySize=auto;orthogonalLoop=1;fontSize=12;endArrow=block;endFill=0;endSize=8;strokeWidth=1;shadow=0;labelBackgroundColor=none;" parent="WIyWlLk6GJQsqaUBKTNV-1" source="WIyWlLk6GJQsqaUBKTNV-10" target="WIyWlLk6GJQsqaUBKTNV-12" edge="1">
          <mxGeometry x="-1" y="149" relative="1" as="geometry">
            <mxPoint x="-9" y="-50" as="offset" />
          </mxGeometry>
        </mxCell>
        <mxCell id="WIyWlLk6GJQsqaUBKTNV-10" value="&lt;font style=&quot;font-size: 11px;&quot;&gt;&lt;b&gt;Decide Appropriate Model for Each Sample&lt;/b&gt;&lt;/font&gt;" style="rhombus;whiteSpace=wrap;html=1;shadow=0;fontFamily=Helvetica;fontSize=11;align=center;strokeWidth=1;spacing=6;spacingTop=-4;" parent="WIyWlLk6GJQsqaUBKTNV-1" vertex="1">
          <mxGeometry x="130" y="540" width="140" height="100" as="geometry" />
        </mxCell>
        <mxCell id="WIyWlLk6GJQsqaUBKTNV-12" value="Send sample through model via REST API" style="rounded=1;whiteSpace=wrap;html=1;fontSize=12;glass=0;strokeWidth=1;shadow=0;" parent="WIyWlLk6GJQsqaUBKTNV-1" vertex="1">
          <mxGeometry x="140" y="880" width="120" height="40" as="geometry" />
        </mxCell>
        <mxCell id="s_xDTOq8JZx-aqZbNe94-0" value="&lt;font color=&quot;#ff6666&quot; style=&quot;font-size: 22px;&quot;&gt;&lt;b&gt;lambda_hander&lt;/b&gt;&lt;/font&gt;" style="text;html=1;strokeColor=none;fillColor=none;align=center;verticalAlign=middle;whiteSpace=wrap;rounded=0;" vertex="1" parent="WIyWlLk6GJQsqaUBKTNV-1">
          <mxGeometry x="190" y="40" width="20" height="30" as="geometry" />
        </mxCell>
        <mxCell id="s_xDTOq8JZx-aqZbNe94-4" value="&lt;font color=&quot;#0066cc&quot; style=&quot;font-size: 13px;&quot;&gt;i.e. &#39;clinicalval&#39;&lt;/font&gt;" style="text;html=1;align=center;verticalAlign=middle;resizable=0;points=[];autosize=1;strokeColor=none;fillColor=none;fontStyle=1" vertex="1" parent="WIyWlLk6GJQsqaUBKTNV-1">
          <mxGeometry x="267.5" y="345" width="110" height="30" as="geometry" />
        </mxCell>
        <mxCell id="s_xDTOq8JZx-aqZbNe94-6" value="" style="shape=image;verticalLabelPosition=bottom;labelBackgroundColor=default;verticalAlign=top;aspect=fixed;imageAspect=0;image=data:image/png,iVBORw0KGgoAAAANSUhEUgAAAkwAAAGHCAYAAABCow0pAAAACXBIWXMAAA7EAAAOxAGVKw4bAAAgAElEQVR4Xuzde1xUdf7H8RfMOAw444xcdCiR8bdgWuLKphZ5SdK8x8pmFmkW1lq0G6WlecvUUisr0y5kF9m1FDUK1zSsNCw1vNQPd9Gkxd+Cl2RcboOMcBhmmN8f3EcU8Jbm5/l4+Ig5n3POnDkzMW++3+/5Ho/KykoXQgghhBDirNTuC1rC5XJRXl6OoihUVlbidDqpqqrC5ZLsdaXx8PBApVKh0WjQarV4eXmhVp/X235JVFZWUllZiaIoOBwOHA4HTqfTfTXxK1OpVKjVajQaDd7e3rRp0wZPT0/31YQQ4jfLozUtTJWVlZw6dYry8nLUajVt2rRBrVbj6emJp6cnHh4e7puIX5nL5aKqqoqqqiocDkddwDUYDLRt2/ZXec+qqqo4ffo0p06dQqPR4OXlhZeXFyqVCpVKJV/EV6CqqiqcTidOp5OKigoqKiqorKzEaDTi4+PjvroQQvzmtCgwVVZWUlJSgt1ur2ul+DW+aMXF4XK5qKioQFEU9Ho9Op3usryfTqeTsrIyTp8+jU6no23bthKOrmK1wddms9GuXTu8vb0vy+dICCF+Dc0GJqvVis1mw8fHR4LSb0xtcKqoqMDPzw+NRuO+ykVTXl5OcXEx7dq1u2wBTVweLpcLm82GzWbD39//onb5KpVl/Md6kFzrIYrK86msstO2jZ6OuiBC2vfgOv3/yGdJCHFZnDUwVVVVUVxcTGVlJTqdTloCfsOqqqrqWgkudveKy+Xi9OnTlJeX4+fnh0qlcl9F/EY4nU4KCwvR6/VotVr3cqs4q5zkleay78Q2vNvouCmgD/4+16H2bMPpylKOlWSTXfRPjF7+3NJpKG01evddCCHERdVkYKqsrMRqteLh4XHRv0DFlausrAyNRkO7du3cS+elNogBGAwGt6r4rSopKUGlUtG2bVv3Uos4q5z8cur/+CEvjRsD+tDVt9cZf7C5cGGrKOFf//0eq1LIoOAxEpqEEJfUGc1GDocDi8WCWq2WsHSN8fHxwel0Ulxc7F5qtaqqKvLz81GpVBKWrjG17/f5fo5KlAIO5O/hpoC+dPP/wxlhCcADD/ReRnqZBuDr3YF9J7bJVbpCiEuq0W8ih8NBSUkJbdu2xcvLq2FJXCO8vLzqutHOV1VVFWVlZbRt2xadTudeFtcAnU5HmzZtUBTFvXROFY5yfinNwbuNjlDf3zeq5Z/+hY0/f9homU/NeoqjjBOlOY1qQghxMTUKTKdOnQK44PEH4uqm1WpRFIWKigr3UouUl5dTVVWFXi9dJNcyvV6P3W7Hbre7l85KcZRRpJykq+/vm2xZcueBB3qNgc6GUI6f+j/3shBCXDR1v5FqB3h7e3s3rJ9b/gaevvMOhs/dRst/JTbDmc3Kh+/gjuhX2dOS+QudO3h++B3c8df15LnXWiFvy0Jio4dzx51RPP/tRXs1Zzjy7cds2FsEgP2b5xl+xx08kXwhR97Yhg0bOH78eKNlx48fZ8OGDY2WNcfb25uSkhIcDod76ZzKy8upqKhoXTec83sWDruFW25p4t/97/JzSz4HF1lp5pd8+e/qz0Hp51MY+GgyhW7rXPGOreaRyBl8WfNxzt22kUxr41XOZu3atRw5cqTRsiNHjrB27dpGy5pjMBiw2WwtnozUUVVJmb0UPx+Te+ms2qg0tPPyw6oUuJeEEOKiUUN1y5KiKBdtsO/VJ48dqds4YruJCQvjGXHjJbq83r6HT95cScbgcMb09UUTNoH5C4agC/FzX/O89e7dm82bNzNq1Cg6derE8ePH6x63Vtu2bSkqKsLf379Ff+0rikJpaSkdOnRwLzVPpSfqja3MjnAv/DoyNy1nS/fbGNZVg37YAjYP8uKqbi9z/syWDzfi9bsowozuxTNFRETw2Wef8ac//Yng4GCOHDlS97i1fH19KSgowNfXt9nPUZWrisoqOxpV9ZCA/NO/8A+3brgP/ncBAB3aXk/UDQ/j4eFJG8822J2t6/4TQojWUJeVldVdUn6h85nYD3/B8jdX893Pedg0gdx0+3ieeWIkwfnreeKhd8m7M55JpLLymyPYrx/AY3PGwdpXeffbI9B5CE8ueIbBAbV7q+DI5oWsXLWDI+V+3BQVz+xHb8GXIvasWMjyjQcp9A5mwPhbGrVunfUYzpqB8lj/1/G8+xPAQT6e8QQHBoewf9thBszZyPw7NNWtWKOeZ0fIY6x+axxHX4li5tfBTJozgOxVH7PnF/DrNY5ZcyZwkw5sP21g2TufsOdwHnbvYMKHTyL+j4W8+sByMpzAJ09wxw8TeCvmCM8v2kHo46t5c2wg9pxtvPvOx2zNPIJN5UvwjQO55/HHGNlFw56zPOfqlyY0ejWdOnVi1KhRbN68mb59+7J379668NRatVdJ1oamc6md3DQgIOCCP0dnKiVt3kSW+8xm1fTe6Cnl+xcnsoRprJpzG/oTaSxf8i5fHrajUWu4rv9jzH4qkutUgD2Xja+8SOL3uZQ69dww+DFmPz2M63ITmfjIz8RufYlIFUAuibET+XnCd8Se+AsLvyigdMdEJubO5u3frWbUpn6krBiLH6VkfrSQJf/4mVIAjZnIyXOIH+SHPXUKQ764gWduyCXtpwJO5JVy3R/n8PJDYbh//Eo/n8Kor27gUX0aa/KG8/oHsfjvT2TJGxvJtIFG40fvmGlMG3MDGuz8/OmLLEzKpNQJdpUfN8dMY87dN1D66V+I3hZJyjtj8QOwbuQv0V8Smfw2Y+ue7QQbn5vKmv8rRTPlXk7EfUC8XzIL39jIzzawOzRs/nxd3doAwcHB/OlPf+Kzzz6jX79+7Nq1qy48tZaHhwe+vr4t+hx5enjSxlOD3VmBVu1DQNvreeQPc4Hq8JR+fAtRNzzcaBuXq4rKqko0KhlKIIS4dDwLCwsvzozLzmxWvvgqX+SYmPDSCuaP0JG9eTmvbsyDmgkRi3am8lO3CcSNCsaes43l014lo9sEnowOxX74CxLWZtTvz7aH1IM3MeHpeEZ2LiRj3RIS0u3YvlnGwnUZlN4wjtkzJ3HTwR1k1Camcx3DWQUy5On5jOkCqMKZtOxNHup87i98jUoDzmw2fGbhlkemMamvhry9K1m+8QiUbGPJ7OVsyw9hwpzFTBuu4+C6hcz7shPxTw3GF/C94xnenDOGzg1PeckOlsxYyIbDvoyZvpjFTw3B9/AGXp2xnD22sz9nUzp16kTfvn357rvv6Nu373mFpVqenp60adMGq/XsfTm1c3a1b9/+Es2zpCfyqWn03ruExP12Sve+y5L9vZn25G3oyWX1/IX8EDyNtZ+nkLLuZW77v4XMXZMLQOZ7z7LCGsXbG7ayNXkBYZkLmbv+ROPdu7nhgQXE3ujFzZNXseqp3o1qpduXMGO9hvHvpJCSnMKqp69j14svsvG/gMoL9n/PidsXsPSdD1i3KJITf19JWhOnzsvLCw58z4kR77A5MZYbrBt5cdZGNA99wOaUFFKWRlH63lzezQSsW3j3rRMMW5pCSkoKm5ffg35vGv8qc9/r2VxH1Lx4bvMxM37pOmYPLWVjwmoqxn1Qvb9PX3bfAKgOTf369WPr1q3069fvvMJSLZVKRbt27c75OQJQe7bBR6OnsMziXjqrSqedUxWFGLXnDmNCCHEh1D4+PrRp08Z9eeupgpnwejLjVDp8DRrwvoXAz7I5cqT6F58GoMtgxkcNINBSyIaN2Rz0HcCE6AEEF5XyRfJBMn45QhE31ezvJu55fAwDDHCLM4Otc7eR8cNBDtoysOHLmImTGNAL6JzHjm+Xk9HsMQRW77cJvl1CMHkDKh3BN4YS8LP7Gk3REH7fY4yM0IDhIP9IX0/eEQu29K3sKYHQRyYxrn8wRIRi6nmQIt31BKr88ALwC+amLr7YG1zUY9v7BTvyIXhiPJPuCAZuQXd4B098spUvfoxnzFmesynHjx9n7969DBw4kL179xIQEHBBoalNmzZ1N1tu6oKA8vJyvL29L+zKSmcpG5++hY2NFnoRFreWDx64Doy3Ef90Go+88iw5zhPcNv0DbtMDJ3aR9u8biHqhd3WXmcZM1IgwVvxjFyfur2DXjkLCJg/nOg2gCeOxdzZT6qWHY42eqMUyd34PA15iWE2vo75XFJF+f+b7/XaGAwTdRmRtl25wF7rwPSdKgaa6wfx6M/y26u7Y0r1p/Og3jPcH1XTPXjecqNtWsOzbn4mf5I+/Lo/vN31Jz9G3ERY0jGk1Gef8xlV54W+E3J0bSTMPo/eN5ia7G48cOcKuXbsYMmQIu3btomPHjhcUmry8vKioqMBut591Vnmt2gdfbUf+XfRPAnXmZv+Qc+Gi1F7C0ZJswjrc6l4WQoiLRt2qQd7nZONgyhLeTc0gr8Re3U3mBJ2zvsNMY/Cr7jbQadAB+PrWPPZCp6pev47Oj8CaK9I1vn7ogcKSAgrL7aAKxNe3Zj1fP3zrfvc2fwznpanxqio/AmufWKdDBxQ67ZQWFWEHfH1rvvhUvtwUMaD655+q/9OU2u1MAfXjmXwDfIE8bCXVkz829ZzuGo5Z6tSpEwEBAY0eny9vb29OnTpFmzZtGrUiKYqCoijNdrU0S6Un6rVzj2HS9x1PJPeSqHmMdX1rvuJLSimtyOTdh0eRWLuiswKN8QYKnYUUlnqh1zf4ctbrmwwHLWOntNSO7ncN9qDSozdCqbW0OhR56dHXnp7aO4Q09fkB0PvhV7NuqbWUimPJTB3zeX3dXgGDCsHnNqa9+QyrP97IkscXckLdlcgJ04i/+4b6dVvFj2HPv03Fx6tJXvxnnv+vju+2Nu6SazhmKTg4mI4dOzZ6fL7atWtHYWEhRqOxyTDkpfbmen0Xjp2qnsn7Bv/wulpAzZilhsoqbWQX/ROt2ofr9F0a1YQQ4mK6aDd9su9dycLVe9DcMZs1Mwfj+/O7jP/r+upxHufDVkheOYTrwF5USCngZwjAT6UBZyFFRUBnoKgQS00eqrxIx+Cl0gB2bOU2wBeK8ig625eeG72vLxqgKL8Q0IEzjz1b9pCnu4khdeOzzlS7naV2O6AorwjQ4evbVDRq2g8//NAoHNWOafrhhx8uKDBB9dw6hYWFdYPA7XY7p06dOr9B3ufhxIZlfOk3lrH2ZJZtGMbSMdeBwR+9182M/2gpUe6tOM6f2aUvJddqp6aNE3vhCU44/THXBBW7E1ABzgoqmu3i0qDX67EVNvhEOUsptYLeeP4xDEBv9Ecf0o+3E2MxuxcBjTmS2DmRxAKF+xN59pm5rA5bxz3uPaBlpbRoMgj9DUTFLSAqDuwnvnevkp6e3igc1Y5pSk9Pv6DABPWDwP38/Joc72bQ+tMj4BZ+yEvDhavFM303tS8hhLhYzvwT73zZq39N2+2l5P28h4/X7qFUBXbLEbKtLUwbDTkz+MeKL9jz4zZWrt6BDV/Cb7mRm3qHo6OIratWsuPHHax/5xOya3d/rmMoankrk+76QHyBg5s+ZtuPe1j/QSqNL7A+O13fIdyig+xNK1mfnsGOj15l4WvL+cdh0Kk0aFRQeHAHOzKPUNNuVLPdSAYEwJFN7/Lxzgwyvn6Xd7/OA9MQRt7cdPdFU8aMGXNGMOrUqRNjxlR36l0oHx8fCgsLqayspLi4+KxfehfdsWQW/s3O+OnTmDZ9LKXvLST5GHDdbUR2zWTj+ppB2DWDshd+nguqLvSL8OOHzz8h1w6U/czqZyfy4pcnwOiHHyc4UdM1Z8/8ku9P1D4ZoILS8jOjdtjtN8P3G/nyv9WPS3/cSJr1ZiJb8R41Rd83kt4ntvDJ3prnLMslefFcVh+yw6FE/vLEu/xQM/zHz2zmOm/ACXo/PzR5OeTYAezkbvuefzc5E4QGqKC0HCj7geWPTGF1zbQJmo7mhisCcN99950RjIKDg7nvvvsaLTsfHh4etG/fnsLCpjsUVZ4qrm/3O/peN4RD+T/w1X/Wcqwkm/LK01Q67ViVQg6c3MPX/1lHRWW53BZFCHFZXLQWJk3fcUy6/TAr05fz9OFwxjw+i2mGeSzcspJXt93dZPfR2djtQMAQRnTaw7sv7uGI049bJj7DY3016JyPMe1gEcu2fMzCxaEMif0jA/a/yzanHde5jmFzOCseCHV/qiZp+o7nyahslm3ZwJJXshkSew9DfnqVDfaabr5z8R3MtIWFaN5Zz8q5O0AXTPg984l/KBScMKLXF6zcv4Elb2p4aVyD7QwDmPbSM+jf+YT1Lz5dfZVcr3HMf3wS4d5Uj9G6Anh6eqLRaMjPz8fPz+/i3ZneWcrGp9zHMAGaMOLXzIHFiVSMe5uxQQCxTLs7jamLk+n95ljGPz+bwiVzmXhX9bujv3EYj003AxA2+SUee2UJU+5KpBQ95kHxzLnXDBo/Jk34khefuZddna7D/4Z+3BYGuU474EfvQWEkJkwk+qdpvNG35lgA/YBpvJS7kCWPR/MugPcNRL0wh2F+NP/ZOBe/YUx74QRL3pzIKBvg0GAe/Bizu2pAFcX4G19kyQOjsKkB/Ai7ew7ju4PGPp7Hus5l4QOPcN11/phv783NXj+c2Q2o6UlkhJ2FT4wi5+G3mTbuOhY+F82asuqgt/nzFLcNLi21Wo1er6eoqAjfuv71eipPFZ0Mv8PfJ5D/WA+S+d90isrzqayy07aNno66IG65fgjX6f/n8gR2IcQ1z6OkpERuwCRazW63U1VVhZ9f/ZgrIVqrrKyM8vLyJkOTEEJcSa6NwGQ7yBcpe7C4/9UNgIbg2ycwWMaLtpqiKLhcrsvXLSd+k2w2G4qiSPgWQlzRro3AJC4Zu92Ooih06NDhEs3BJK4FZWVldRcQSPgWQlyJJDCJC+Z0OrHZbBiNRnx8fNzLQrRIZWVl3ZQDFzSnlxBCXAISmMRFc/r0aRwOB+3bt0er1UpLgWg1l8tFSUkJZWVl+Pn5nXWCSyGEuNwkMImLqqqqivLycux2Oz4+Pmi1WjQazcW7mk5cExwOB6WlpZSVleHj44OPjw9qtfqM+ZiEEOJykcAkLgmXy4XD4aCysrLuv0IIIcTVSv7sF5eEh4cHbdq0uTj3KRRCCCF+ZdK+LYQQQgjRDAlMQgghhBDNkMAkhBBCCNEMCUxCCCGEEM2QwCSEEEII0QwJTEIIIYQQzWh2WgGZdFAIIYQQ17LCwsLmW5gkLAkhhBDiWtdsYBJCCCGEuNadX2CyVzDj1UKeOlDlXrn6FCQxsUtPpm93LwghhBBCVDu/wKRW0f/3XgwIuDLuRn8y3cqor8/zXmW6cEY8FENkiHtBCCGEEKJaszff9fHxcV90hXGx74ti5rXRs/lOuW+ZEEIIIS6uwsLC5q+Sa8zByr+f4p1jVZxUYPR9fiT0qGllOnmaURsq6exwsqOiDeNDqth8wEnn2w2s6adi36ZiFju86JxfQXapixKDF/PG6hhiAKqc7NxWyvM/Ojha5UFYVx/mR3kTpgEO2xj8mcJRG/QfrKNr1mlWF7ro2s/IZ9eXMzi5gn+XuaighKBdgLoNCTMMjG7ulTkyWHzXg6w8kIelQEvs58dYPqS2aCX91ck8uSKNHCsYQ0YwK3EVsd2qq7nJ04lfmES6BQJ7xzB/6QKiQ7RgTWLcgDQiJiikbsnFYrFiGruM9S9EYqzdtRBCCCGuOq3sklMz6UFffpjTnvnB7jVQTkL/CUam6u2sVrzZ/KAXJw9UcBQAF/sOOxn7gC+bp/qSYK5kxmaFEuDonlIeO6zmpXg/sqcbGe8oI25TBQpAiI5t0/1Y09eTnTvKYXB7DszyY00/NYTo2TbDj6Q/eBI2wMCxef4cm9OCsASgDmdm6r/IPraDWb21jWuWFBYvg7i0fPLz89n30QJG1HbZ7V/MxJlZjEjMJj8vm/Wjspj+wCIyHNVl5XgSKUxhY9p3/GvHfEwfP0vCgbo9CyGEEOIq1MrAdG5ag5qeek86G6BnsBqDjycGu4uSKgAPOoZ40V9b/XNYTw0dc+3sczjZesBBn4i29PHxALWKu2/X4pVVwc6aEFLNBUFaHg/xBDzQtiQUnS+dGbMui9QN6VgcYAwxY6p5vqzNKeQNn0JsLy2gpdsjUxhh3ULK/ppt1eFE3x2OFsA/nHBzHjnHa2pCCCGEuCpd1MCExgOvmj0avDzBE7QNLqTTaho8ndYTg6OKEnsVJYoHHXX1JQyedHRUUdIoMHnQ0U+FoeGiS0UXySupLxPxz2cZEDaUyW+lY60p5RUUE9gpsDoQAagD6eKfh6WgdoERo3/tz7RgalAhhBBCXOkubmBqqIk9W21V1d1sALYqTqo9MWg86eDj4qStwdjzkppaC8OGl/uCi0BrHsGU978j8/M4tB+OI35D9ZEHmgLJO55X/zoceeQUtMfUICS5dfAJIYQQ4irXRKy5VFyUHC7n00IXVDnZuqeCk2YNfdQqhvRQk5lexr4ywOHk028VSrp50b9FgckDg8GDo7mVHHUAVS6UC50eypJB2n4LCqDt1J1Ao4Jiq45I3UaNIHDLUhL3K4BC1gdLSTWOIbpXoz0IIYQQ4jekRZGkjr2CeStsbCp1cbLMRcUvhez4wpMBtxtIMLuv7M6Drl3VZCYX0eOkC22gljfGaTEAhlv0vHGqlBnLCzjq8KBrV28SR3qhBY6mlxC7o5KjNhclnKLHT56MHmnkpR71Wa9r77ZM+s9pRi4qo0KtZsrDRh7vWFduPdt+EuPGMTHXioKR7qNf4b2xNde59ZjJqsXTiY8NZa4FAntFsyBxFuGtO5NCCCGEuIpcpnmYXOzbVMwMTz3bRl5pcyVlsTjiLvIWZ7N8kHtNCCGEENe6Ft1897fKWlDdxabsTyEttwvdzY3rQgghhBC1rtHAZCF1ShgBAXqColMwPf8ysWb3dYQQQgghql2mLjkhhBBCiKvTNd0lJ4QQQgjRUhKYhBBCCCGaIYFJCCGEEKIZ5xeY7BXMeLWQpw5c6AyRv570mT0ZuDDLfbEQQgghxBnOLzCpVfT/vRcDAjzcK7+Kk+lWRn1d6b74ElJIie1J/Hb35edm2bqUyXf2JKC9Hn2Xvkx8N6P+FitCCCGEuGKdX2DyVDP6Th13d7wSApOLo8Xn2dJ1vrNzOyzkHi93X9osa4FC9yfXk3ksn+ykaCzznyThsPtaQgghhLjStDIyOFj591O8c6yKkwqMvs+PhB41oenkaUZtqKSzw8mOijaMD6li8wEnnW83sKafin2bilns8KJzfgXZpS5KDF7MG6tjiAGocrJzWynP/+jgaJUHYV19mB/lTZgGOGxj8GcKR23Qf7COrlmnWV3ooms/I59dX87g5Ar+XeaighKCdgHqNiTMMDC6Ba9MyU0h/s6VpByw0r53HMveX0CkCXBYSHs5nmf/lkaOEkj4mCm8vDiWcB1kvDqUccsysBRYIVpPIqAdtJzMlFhMgHIgkelTlpJyIA9tp0gmvbCcmcNNAHS7bybdap+893AizSvJOQ6E1C4UQgghxJWolS1MaiY96MsPc9ozP9i9BspJ6D/ByFS9ndWKN5sf9OLkgQqOAuBi32EnYx/wZfNUXxLMlczYrFACHN1TymOH1bwU70f2dCPjHWXEbaqo7q4K0bFtuh9r+nqyc0c5DG7PgVl+rOmnhhA922b4kfQHT8IGGDg2z59jc1oWlgAObUqn+9JMjh3L5GXzBiZOS8EK5H4wmYlbu7EsPZ/87I3E2pby4HNpKED4M1+RfWwHs3qbiU0ppbS4lPyasISSxtyYRVgf3Eh2Xj773gwnLW5ik61Ili2JpNgiGSE37RVCCCGueK0MTOemNajpqfekswF6Bqsx+HhisLsoqQLwoGOIF/211T+H9dTQMdfOPoeTrQcc9IloSx8fD1CruPt2LV5ZFex0NNy7C4K0PB7iCXigbWEoOhfTmCnE9tCC2sSIR2MI3J5KusNC6j/SiXh0FhH+gNZMzNMxaDckkdboeJqwO4UUbQxT7jOjBYy3TiGu/yFSNuXWrZI2rSdBAXpCn8hi+NJXGFFzT18hhBBCXLkuamBC44FXzR4NXp7gCdoGw4u0mgZPp/XE4KiixF5FieJBR119CYMnHR1VlDQKKB509FNhaLjoArU3GdHWPvA3YVKsWG1WrFYjJlNdBUwmTDYrVlv9oqYoBVaspi4E1oU5LSZTeyyFxXXrRM7+in37MvnuzRFkTRnK9O0y7FsIIYS40l3cwNRQE3u22qrqrwqzVXFS7YlB40kHHxcnbQ3u0FJSU2thK5KX+4IWKrZY6x8UWLDojBh1Rkz+ViwNa5baWv2ipmj9TRgtOeTVBT0Fi6UYk1/7+pWMJkxmM+GjpxA3vJjt3x6qrwkhhBDiitRErLlUXJQcLufTQhdUOdm6p4KTZg191CqG9FCTmV7GvjLA4eTTbxVKunnRv0WByQODwYOjuZUcdQBVLpQWXjRn2ZBAYpYCDgupHyaRN2gEEWoTI+6OIGPF66QXAEouSa8lUTw6hsi64zFh8rey/9uaaQGUmhh4azTRjiSWrs1FAay7l5KwszvRo82AhfRNaWQct6IoCpb9iSRuUeh2Q5fanQohhBDiCtWiSFLHXsG8FTY2lbo4Weai4pdCdnzhyYDbDSSY3Vd250HXrmoyk4vocdKFNlDLG+O0GADDLXreOFXKjOUFHHV40LWrN4kjvdACR9NLiN1RyVGbixJO0eMnT0aPNPJSj/qs17V3Wyb95zQjF5VRoVYz5WEjj3esK5+FlshHIsmIC2NuVvVVcqvej8YI8NB7vPdLPE9GBJCjGOk+fCrrF0fWd99hJGb2LFLjogh6V0FrjmP9jgVEaCNY8NEspk+JInRaHpgiiH1zFXE1V8FZdy3l+SfSOWRR0JrDGfHQKl65TwYxCSGEEFc6j5KSkgZ9YWfy8fFxX3QeXOzbVMwMTz3bRrZxLwohhBBCXLEKCwsvZ5ecEEIIIcTVSQKTEEIIIUQzLlOXnMYCqV4AACAASURBVBBCCCHE1Um65IQQQgghWkACkxBCCCFEMyQwCSGEEEI04/wCk72CGa8W8tSBFs4Q+VuyfzFDu4cSGhqEXj+QpVkNao40poeHEhoaSkB7PVF/azBbeB0LSQ+E0nNmeqOl6TN7MnBhw50JIYQQ4kpxfoFJraL/770YEODhXvlVnEy3MurrSvfFl0avmXx1KJvsQ6uINbnV1JG8kpFNdnYmy4c3uBddI0bCh8UQ009m+BZCCCGuFq2b6buWp5rRdzZzY7XLxsXR4iq4aubD1NJtwgJmui+G8303hBBCCHGJtfIr2sHKv5/inWNVnFRg9H1+JPSoaWU6eZpRGyrp7HCyo6IN40Oq2HzASefbDazpp2LfpmIWO7zonF9BdqmLEoMX88bqGGIAqpzs3FbK8z86OFrlQVhXH+ZHeROmAQ7bGPyZwlEb9B+so2vWaVYXuujaz8hn15czOLmCf5e5qKCEoF2Aug0JMwyMbuaVpU0J5XnT53z3bDcAlOSJBP09kuzPY8l5NYoH304nx9qdWQkjSH95JRkF7Yn9ZC8LbnXbUSukLxzKxA8ysBRYMT32FdlLIhvVldwU4u9cScqB6lu1LHt/AZHurVju9iVx92ZvxrT9hR3HT1FKR0Y+GsMDN3oDkLf9E5asy+RgoQNNu+sZMiGGJwf5AkV88dIKPswspahdX6aNPsX65MMUtglj9vJ7uFVbzsHkJJZsPkxeuRpdxxAenjaRkZ0AHGSnfsKylENkn4LAXrcz7YnB3NS24YEJIYQQvx3NxAp3aiY96MsknKx8v5h9blXlJPR/0kif9cW8rujZ9WAlf9pUwdF+PoCLfYedTP2rL/21LjK3WYndrLDtfi0le0p57LCaxHgDfTRVfJpsJW6TJ1v/5IU2RMe26W3Zt6mY+3eU0/W+9hwI8UBxeIBaz7YZOnZuKOL5tu3YdufFaWYKf2Yj/3oml6WRfVj0Wi9WpWYzwl+pvtHuBYiY/RXZsyFrYV/uamJ406FN6cSmZrK8m5XUKUOZOC2czI9q7m93DvbMw9hffor3QtTY/rmBv76xiR5v3UO4BvSdujFuxmhuDfam6J8bmPraJr67dSIDtb6MnDGTkaf3MiN2Ax9ljub1FRMJxAEaoDiDDzfCuNcXMdIfbHn/xd6h+vlsuz9hxqflPPzcXEZ2Kmf3O2/x4t+D+fvjIWgaHZkQQgjx23B+Y5jOQmtQ01PvSWcD9AxWY/DxxGB3UVIF4EHHEC/6a6t/DuupoWOunX0OJ1sPOOgT0ZY+Ph6gVnH37Vq8sirY6Wi4dxcEaXk8xBPwQNvKqHd+FMIfnMoIE6DWXvLnNI2ZQmwPLahNjHg0hsDtqaQ3Ogdn0SmMgV2qD07XI5xbVIfZnVNd0oWEcWtwdWuTb49wbmlbiqW4dsNaeoaMvY1ADaCpeZHevgRqTrL7+8MUOUEX2AFfFYCD3dsP4Td8NCOD1aDSc+voP6Dff4BsZ4NdCiGEEL8hFzcCaDzwqolgBi9P8ARtgwvptJoG+UzricFRSYm9ihLFg44Nh0QZPOnoqKTEQYMj9KCjnwpDg9Uurqbaj4yYzWb3hZdMe5ORuqHi/iZMSgZWBWhuuJhWjU5V87PKG513OZbT1Q+L9n1JQkom2acAVSWFxd48ULtdLU9fAmtaj+pou/HkomjWfbyJPz8Kt0ZFExcVjI5T2E6VcyT5Le7aWL+6ne6U1j8UQgghflMubmBqqIm2K6utCgWqQ4GtipNqTwwaTzr4uPiXzQXUjIcqqam18Oi83Be0kNKg9cZqaaKPDC7lGTpDccNjKLBg0Rkxnu1iu4aKSylyQqAKcJ6i6JQ3urbAqb288c5hQmf/hdkh3uA8QsJfN7lvXa02cDWg6dCNB6Z24968DJYt+JBX/GayoF87dO28uenBabw+Qu++iRBCCPGb1ESsuVRclBwu59NCF1Q52bqngpNmDX3UKob0UJOZXsa+MsDh5NNvFUq6edG/RWHFA4PBg6O5lRx1AFUulBZMDxV4fSA5O1PJUgBrOu+sS2+yjelysmxIIDFLAYeF1A+TyBs0gogG5yB37XQmvpzGGdGu8BBf7C4FHOTt+J7vPEO4tQuglFOEnkA/b6CcI9u+5bvCFk6/UPwLGTml2AFN+w6Y2jqwKwBqbh3UnbzNW9h6vCZxnv4vGT8XNdhYCCGE+G1pUSSpY69g3gobm0pdnCxzUfFLITu+8GTA7QYSzO4ru/Oga1c1mclF9DjpQhuo5Y1xWgyA4RY9b5wqZcbyAo46POja1ZvEkV5ogaPpJcTuqOSozUUJp+jxkyejRxp5qUd91uvauy2T/nOakYvKqFCrmfKwkcc71pWb1O2h+cRtm8yAoEUYzZFMejCW7tsArKQ8MZTpm3KwWKwoMUGkmSOZlbKKWDOwcy4D45LIKbBgKVDQDgjiHVM4j3+0kSkhqcTf+Sypx/OwFFhRNoUStDCQyNkbWfWQlqQ/R7F4ex45FguKI4qADV3oMno+Xy2NBrREPhJJRlwYc7Oqr5Jb9X7jAd/FP28n7UD3M4NdSAimPR9y9zv/xd4uhHFPjSZcA3T4AxMGHGBZ3CyWefsSPvQ2BnbOqN7GeZiEqZ+w9WQRRQpkTH6Bj/7nNhbMG0yoCjh9hJQ3tjH3ZDl2lTfBN49m2oDqsVC6W+9hQXEKCQsXsKTQgaZdB8Kj7iH8hrojEkIIIX5TPEpKSlzuCxvy8fFxX3QeXOzbVMwMTz3bRl6cK9lEjX1J3JV8He+9fDuB7jUhhBBCXLDCwsLL2SUnhBBCCHF1ksAkhBBCCNGMy9QlJ4QQQghxdZIuOSGEEEKIFpDAJIQQQgjRDAlMQgghhBDNkMAkhBBCCNEMCUxCCCGEEM2QwCSEEEII0QwJTEIIIYQQzZDAJIQQQgjRDAlMQgghhBDNkMAkhBBCCNEMCUxCCCGEEM2QwCSEEEII0QwJTEIIIYQQzZDAJIQQQgjRDAlMQgghhBDNkMAkhBBCCNEMCUxCCCGEEM2QwCSEEEII0QwJTEIIIYQQzZDAJIQQQgjRjAsMTJUsfbOQef9xuRfOrqSCee8XEjqvgNAXi1j6SzPb7t/P0O7JhIauQ6/fzNIs9xXOT/rMFAYuLHJf3LQN3xBw189Y3Ze3SglLI9cxeYvTvXBxWX4iKvBbUhyA4xemh1efu4D2HxH1t3L3tYUQQgjRAhcYmFrLRebe0yRrfdg2x5/sGe2JC/RwX6mxXr346tBYsg/1J9bkXhTnpL6eVzLGkp09luXDVe7ViyLrraH0nZKG4l647BRSYnsSv919+ZXoEh2rI434sInVYdmdLZ3pA4ay9IB7QQghREtceGBq5R5KSqoI7tSGzmpA7YG2ldtfVGr3BWdzacLGVa8ghUVva4l7OhKte+1yc1jIPX6VtKBdqmO1WbAUuC+soYtg1qNG3nkuEYt7TQghRLNaHVdO/tvG/a8XELqggMFrFI5UNSg6HHy60Ur/RQWELiri/i8rOAmAi60bi+j/SiGx/3KxL81K0LwCQpfZ2Ndw+/OQuzadoeHrCGi/hoDuW4hfW1JdOLCfgXd+w8QByQSFf8vcaVvoGZRM1Fs1dUDJzSH+zmSCAtfR864fSav9JlGKSIzbTGhg9T6n77I3CATlpD73NX27rCGg/RpCB3xL4v6Wd7MpB35iYkQyAQHr6PvAT2TYagpWC0tjNhIauAZ9wDr6xmSSXtMHmD4zhajnfmJ69GYG9kkmNOJbEg/UPqed9De+qT6eoBSi3i5qeWuPUkLStC30DKrZdv4vdV+mGa9uoWeXNejbb2bx2v1Eha8jKGgjc3fXb27dlEharxiiO9UvA7DuXMrEAaEEBAYQOmAyiQeqj0jZMpnQyKXk1q2pkPrnIAa+WrNEySJp2lB6BgUQENSTqPlpdceTPrMvUc8lMD16KAP79CQ0YmLdfjNeHUpolz7M3ZlLYrQefXs9AdEXIxhYyXhrMkO7B6DX6wnqM5HEwzUlh4W0hePoG1p9rEOfSKx/L7dMJjRmMQlxUQwd0JfQsIHEJ+cCLTjW46nMvacvQYEBBHUfyvSa7XDkknBXKEPfqO2Tbvg4l8SYngR1n0xKQRITA/To2wcw8OXG/dfGMTFE7E8iJbfRYgCUrfGEhk4mpfY1CCGEaKR1gUlRmJdcgWGAkcy5fiSGOtmaX1t0sW/LKZ7Pb8PSp/zInqoj7LCNefurAA+GRPmyc7ofiT096BNp5Ng8f7Kf1NGndUdwBmPI9Uz5KJr84vvJTvBl98z9db/0lf1OIpOGM8v0C4m2G/kupQuWzUfrvrAPbSqi+9Jojh2L4mXzUSZOy8EKZC3byfQsE6sO3U9+ei+0Oy0Nxi9p6NIvhBXp95JfPJb1o8uZ+9zhFn45O0ndXE7s52PJP3Q7gw7v5/m1NS0NRh297u3Ljpz7KT02nDjHTzy7on6MVdrafCISRvHdvmjWjy5h7stHUQBl5488+pqdmJSx5OcMJ64gn7SmumTO4CR9/jdMz7qeFZn3k58ZQa+t6UxPrj6e8GeG86+cUSzoVcLrr9mIS72XYzmjmNW7dnuF9F0ZdL89EmPdPoHjiUx+IAnj019zLO8YXz+ssOjPS8lwgHZQDCMsqaTUhg4ljZTtXYgeYwYU0udPZHrWCFZk5pOfuYJeWyczPbn2zCukrU0nIuErvtv3L9aPzmLuy6koQPgzX5F9bAezepuJTSmltLiU/JRYLrQH17ppOuOWWYn+KJP84nz2vT+FSHN1LfeDyUzc2o1l6fnkZ28k1raUB5+r75q0bkoi595VfLVjL5lv9mL7zNdJczRzrI4slj4wme3dXmbfsXyyPxnB/pmTScgF1Gbilk5FuyKehCyF3A/ied0xleV/7QaYiU36F8cyljPCP4ZV+aWUFufz3bPdao6mhi6SyF4ZpO0+czSetlM4IwaFY/7VmwqFEOLK1Lq4ctTOPq2GSTer0eJB53BvRvvU1KrsfHoAxg72oY+PB2g1TOqlYkeWveUtHufB2LszI3poqn/u34VBxnJya7oltGZfepm8MXdSEX5zAEaTN0arneKaQGEacyOxPVSg9mbEo10I3P4L6Q4badttRD4cRoQRMJp4/MGABi1MKroN70K4SQVoCL/7erpbSshrUUiBiPFhRPoD/iaiB3mTe6T2T3odkWNMmLSA1kD0KF/ycuv/3DcO6cIIE4CK8Jt94bgNC3BoWz7Fw28krpem5nV0JrwlXY0OC0nJEDO7wescryNts+WM9yv8wV7Vz61Woa3bt4WsXC3mkMaxxLIpibRecSwYY0aLFvOEWEZYU9lyGNBGED0kh9RNuQAoO1NJM0cTHQI40klKVoiZPaXmeCJ4fHwX0jbXhxDjkJiacwDhN/eC47ktDKrnQyH9H6m0f2gBcb1NaNVaTL3CMasBLKT+I52IR2cR4Q9ozcQ8HYN2Q1JdWNWGjCG6f3WU1PaKoJvVgqW51pusFJJyRzDz2UhMatD2iCPu1kOkbq8JOCFxLH9ay+t/jmLiazD1zTi6teS9rmOkW0ggliNNnLVusSx/P65lnx0hhLgGterXo6K4KGmromNtzPL0pGNbKAFwVHFScbJzTSHJtRtUQUWQiwq4ZGNcLFv2M33ZUbIKALWTvOMaptaGF50KbzWgBqOxOlQ1PI72Ju/6x/7emJQirIodq1WFyVS9PoDRv/5nKCf9rR9ZvK4IiwNw2MlxdD4jZDSt8X61aqD2WG35JM7fT+LO8up9WW0og26oW7e9scGxNnjXrFY7gZ0a1EzeGGnumxlwlGMpsJF2zzqSavfncKL0rw64DQOi2exd96iOQ0GxeWN0e2PzTlpRtk8nrMvcumWKEkicFUBLxB9HkPNaKrlPxZHz5Xa6/HEqZgCHBUtBDmn3BDU4HgWlv1J3btsbjU2eg0tDwVKgYOrXRDuVw4rVasRkavDiTSZMtgystafe2J7A2mNUA+oWfEIseeQVpDA5LLV+maLQ/WYr1LTjmSfEEbkwitQhG4kNqV+tpbQ6LYrtEoyfEkKI37hWfe1ofTwwKC5Kqqhpm3JRUvu7V+1JRx8Vjz/oy5SO9dtcUgWHiX/CQsQnw1nVSwOOfKb32eu+1lkVWxp8cRSUY9FpMGo1GI1OMgrsQHW4sVrtdaspW35k4joN76VEVbcUHc5kYEwrvoDOcsYzXt7JUlsvvkrrgkkL1r99Tdge97XOFOivodhSf3xYW9iip/bGZDIwNSWKmd3ci26aOma1Fq2uHMXtyQI7GjGOeY/sxOgmQ7K2fzQjpiwm9XA3craaiE4xVxfUJkymcKamfNf88VwWWoxGLdaTFmrDSh21EZO/lQxLfZDBYsGiM2LUNVqzdfwDCTTHsizjFSKaOucoZLy2mN29Y4nY/TyLdkey4Fa3s+yo+dfk9mC1FaP1byIACyGEOKfWdcl18qJ/eQUf/uQEXBz9Vzmbav+i9tRw943w6bZyMstcgAul2M6+/GbmWboQtnKsaGpabexkffxTkwNaz8ay4ScSs5zgKCf1wxzyBl1PhFpH5GAD6X+vGZBtzSdxdYOB1FY7ilFHFyOg2Eh5O4eMFiWUc7Na7Rg76apbbCy/8PrqusFh59RtsAnvLT+TeLj6daStyCGjJd2DahMxY5wkvfwzGTU9PkpuPulZLR3AbsLcSSHrsKXx0tExhO9OYNHW3OpzpljJ2plR33WmjSB6iIWUhYlsMUUTba5Zro4gZoyVpJcTGxxPOulZLT25Jkz+VvZ/m1HzvG7b2TJIeSuRtOONF5+dlshhEeR8vIjEA1ZAwXo4o6a718SIuyPIWPE66QWAkkvSa0kUj44h8ixBpbGzHGuPaGL8U1j8RnpN66WCZX96despoPywiCc/NjP/zfd4b3EvNkxZRHrDl2k0YdLuJ21n7QlsUAPAQm6Wgvl3ZvcCHEhk8p8TWvbZEUKIa1DrApPWi/l/8uK/W4oJfbGIuH+34e4utfMoedBneDtmtKvgqTcKCV1QSP9VZewsucDAtPNHBoYlExT0LQm5RcwdsI7QsC0s3Q+YQ5hyn5254WsICN3C3JMmonu1fAqAyEeuJyMuhaCgjTx7uDOrFnfBCHT7awQLzEcZF7qGoMj9lI/qTPeaL0Lt6BuZqv2ZPoFrCIrYSfrvOxPZVFNKK0U8GoZ5wzfVV+w9cJQuo0xNttCc4dZerPgLJESuI6D71yQGdyHav6ZmO0p8RDKhQeuYvMFJ6hMpBIWmMPFvNkBFxPN3MN90lEfD1xAQsIawe/az3eIEykl5YiOhXTYzd7edxJhkQsO/ITG3/mlBS0S/cA7tSm88oWenWFa9PwLLwjsJCgggIHQg8auzGqyjJeKPg8hZm4Lpj9ENBmZriXh+I/NNKTwaHkBAQABh9yxmu+WMb/2zMBIzexamTVHVV5hFLiK94Zf//iSmP5dEVoNFzTHet5xVEyAhOhR9+yDCYhaTVhNeTA+9x3tDsngyIoCA0DtJUMexfnFLp1c4y7GquzHlo+VE/PgkA4ICCAgKZejMFA4pgJLOoieSML/wCtEmMI5+hfk9NvDk/PT6XKSNZOoLt7I/LpSAwCBCp1UPiq9jSyftQHci3FulAMWSQdrODFp8uoUQ4hrjUVJy7kTj41M7qlsINwVJTByQQmTa+it+UlHLB1GE/WMEmZ/HXfDVc1cry8fjGLA5mh1JMdfsORBCiPNRWFh4tpEOotUcR5ncPZ3UJv9C1/H456OY2ct9+VXOP4ZZjyYy+bU0Ypa0tHXl16CQ8WMukfdew0FBSef1FVYeT7iGz4EQQlwAaWG6aJxYC+woTY0BUaswGjUNLskXQgghxNVCWpguKhVGufpICCGE+E1q3aBvIYQQQohrkAQmIYQQQohmSGASQgghhGiGBKbW2jKZoLsSLuE9zC6Xcra+vpi7Y1/g7vumMez1TPcVADiy8W3ufmYbR1o6n6UQQgjxG3SVByYr6e/GExUehF6vJyh8HItrb1R6pTqwmIGtDVzWDJKmjaNvlwD0+gB6jphOaotnrD4bb4ZMncmnic/x1v3mmpvAnMkvJJyR/YLxa/l8oM0q2ryCyUm/uC+uZ00lPiKKhMONF6dviKTvxgMo+58gYPnalp3D8gMkJU+m75yb0E+9iZ7LXyC14UekPIVxz04mqTybxa/exvSfG9QAy9/G0ffPKY0n5xRCCHHNucoDk4LVFkjs+/vIzz/GxkfhnSfcZni+JM5/xiHleA557gubZcVqHMGytGzyj+1jZqctTJ7vNovzJaK78TYejg7hQm6R5i7vZKn7okYy3l7M9kEzz7i5bHvvDhh1BvA2EKgzuN/h7SxKsHrfwbInvyd/4RZmGr9h8sZv6s+d2oCxrQGj2oDRuwPt3V6oacJMhu9/nkW7L8fZFkIIcaW6KgKTZctcosKDCAgIIKj7QOKTa9sWTIx4ZibRvU1otUbCR0fSvcBSfR+uS8lxiMTYgYQGBRDUZxxLd9e3PygHEom/sydBgQGE9hnH4i01x1qQwuTwUIJiEsndOp3Q9nr0AT2Zvr1mQ4eFtIXj6BsaQEBQT4Y+kVh9LzsAYyRxs2OJMBvRGs1ED+uFcjy3Za0eyn/5YsXbxEycReS4ucTM+5bsFnSv2f93Aw89Mpdh46YR+eSXHHGr2zK3MXfqC9x131zunprEFzk1J31fEncv/JL1b6zgr1NfJWbyGyzZUVRd++cGHoqdy9TNJ8lOfpth42YxbPwqvmtw72Ac6SQlK4y5N+KMWGrSGTB6t0Pr3QFT23aN6paDS4haeDMB024iaN4Y4v/3v9UF737EjbqPiAADWu8gonv0QLEeqz93KgNGvw6YVAZM3gaM7jNDqMO5f6yRlNUNbkEihBDimnMVzMOUReLCJEwvZJI/2ggFWeQ2NVexw0r6hynkDIolwv2b9gwODn72Pn8/6Jas/MKJf6w/nZqJkcr2FA4lfk12ooncjydz55/n0mvfciJJY27MIqzPfk32BDPK7sWMi5mI8euviAuJ5r2MaN7bMJGAFRFkpja+RUfuB5OZuLUX69PXE6HLJSkuigefM7N3qdsM2rYMElenEz5sVlNnwY2Dgx99SMKRP7Dg9UcJb1fOkaPlLepe0/xhDH/7YAz88xNi/u5WLNjLi0v24vfoX/i0XzsKv1rFX9/YRujrwwgF7P/7v+TNfYq3fu+N/Z+f8OCb28i47R7Cfz+GvyWOIWPFCyS0m8R7Mde77RjI3c1u5Vbm93AvgPGmeGZ6GsArmpcHtmtQySYxNQXTXd+Q39MAp7PJpUODeo3yAyTu+ZHw7vH1584zhEl3dcDs6UXgsGk01WzV7fZb8X4ijUOOSMKvgv9jhBBCXHzNRIMrgQlzJ9i/OYWMAsC/G+bam8sCODJYHBlEQEAQ47Z245XFLbn1g5quIycyJ35S438P3NpsWALQ9ohhylgzoMV8XyzRju2k7Qd2p5CijWHKfWa0gPHWKcT1P0TKptxG25/JQuo/0ol4dBYR/oDWTMzTMWg3JJFWm+mOJzKuSwD6wKEkGGex/LFuDXfQNOcvfLfPwZB7BxPurwaNnuCQDhfcvVa0Zx8Z/zOYuH6+aFATOHggA08fYnftuKoOYQzpUd1UowkJJthWSl5Lm2cOHyKnU3e6NBVMjD0Ibwd4BREeaGhQ6IDZCPv3p5JxGmgbirltg3LRWsbNuQn97HtJ8I5n+aDQBkUD3ToHoQVM1/fA1NT7b+6O+XguuZe65VIIIcQVq6mvpSuMkZj3P0f72lwejViKacwU5s+OJby2JUAdzpRP9hFrzePQ1gSevWsypL1HdMNQdQYH//5i1Xm3MOEfSGDtmVMH0t6/mBwbKFYrVlN4fQ0tJlN7LIXFgLl24ZkcVqzW/2fv3uOjqu6F/38aQ7MjuWyQiTOPbDvxl2mTQ5KSBlIDJYdBRUclJ/OogdQSjNVwYksUjkkaxMhFSLlIMK1Ng5YB1F+A2g4/RIeKEorgoIiTw+Uk7eSRqdEnY7hNYmx2JKa/P2Zy2+QmooKs9+uVl2Z919qzZ2Uz+ztrrb23jF7fayxJr0ff6sLXin/UY2wW650WfKdqcf7hCWZkwW57zmBbBVo482k4119zcf/Mp8+28dn/7CQre2dP4Weh3N6VFI0MZXSfUaxzvX8ZlNqqooZJ/Q30DCKSrNmbkP6ymrkrK9EnzmXJHbNI6ppeG21l/aPT8H3qxrl/NTOeg915s4bou17CJCRUVJUvs3xNEARBuIxd3DPpVyUsFusT27A+XIdt3gwylxtxrzZ3h6UxevRj9OhjFmDdNIPqGrDe3Kv9eQIjTDdpioNCiBgqWQI41UhjB+iDgY5Gzp4ahV4GKViP7D3RE0PF6z2LPnmUZgMawTL6MT5cXh/dc0JeL94wGbl7OEhC1uuR9XqMRR6qEhw4W3MwDjpcFErYyDbOtGjLv5xrRoUSNvFW/lSQcP7VdYe0Bf37bIB1VFKYhNSq0qsnhifEhDV9PdZb3NhenEPmDgX3zMldQWQ5ClmOwnhrA1Wle3C2z8IY0mcLA2tVUYMlJJEsCYIgXLGGkx58wzw499bh6wBkPUZ9KGprYCij1YVjpwvPKRVV9VG3/XfYPdHEaa6u6s8IaSQRkZqf8OHlj+qxKiq2+xdze16yYQ++DXM8cKMVa0cVZVs8qIDvYBkV++Ow3mnsaazXY6hzUh1YC+5/WK8ey12puCrX4jwFqB6qnqri7J1ZmIOBumrs++vwtqqoPg/VlVW4jLHE9j6BH7OR+2AFrt5TX1cZ+XFCB/u2vcHxsx3weRuN9U0ElmBfsNETkxj3tzf4w3tn+Azgs0/4x9GPhr3d0deEc/pv9TR+Bnze0Td5MkYT/WEtXWvIh6cB59/c+DqB0CiMcghqR7s/9PEB7O+78ba1o7Y1UL3Pjks2ETuizwYGV1+LZ2wcccM7PARBEIRvoUv/FNBxloNPzyEz6B4fWwAAIABJREFUqxG1Q8IwwUr5byyBmI+aTUXkP1iLp1XCGG8mq2I9ecY+W7jo5LvvJ+6VTEzzalHHmlnw7ELMEkAqS59fSOH8dEwFjaBPJec3m8nrncDduIAld2dTOFFHfoeMZfWbbP6ZHv1961n/UT4Pp+o4ocrE3baAbaWBBd+tddiLc8k95kVFJvonVlbZFvZZgKx6XVTvVbH2STSCufH+bGZX2inJ28UZQtHf8O8sWnYTo686w6urN/D8/7RwpqWNzz7/iBk127lmYga/nZfA6R2VPLHjI063tNH6GeTe+w6jDUkUrryTpKhJLFrQxtMbnuGuX7fxmRSO6Uc3UZBwHaN7v/wAvjf9NjKO2cnN/guEXsfsxb8g83uBYMxUbgx+mIPHwDy+T7OBdTZz8PV5ZG5sQu2UMBgslN87zR9rr8f+5wJyP25CJZJoo4VV9+WT9AW+KtQdOEjbjUuIvfT/tQiCIAhfke80Nzf/S1vY29VXX60tEoSvlGtJCnPVp9lXev6tBb52HS5KUudCxTssnaANCoIgCFeC06dPXw5TcsKVJunhJdy4t5Qqjzby9fO+UMquCUtYIJIlQRCEK5oYYRIEQRAEQRiEGGESBEEQBEEYBpEwCYIgCIIgDEEkTIIgCIIgCEMQCZMgCIIgCMIQLv2EaVcuyowKAvd5vHj2F5KYWorrC90gUfjqNVG1YRKJfz6sDQzsSAHK2ko82vKvQd2emZjWllPXqY1cpnxbSC+eh73302za95C/dBK5Nc29Ci8FbkpXmil0a8sFQRAuvks/YbokqdhzEsnfqy2/ghwvQFm3CU9/J9gvJZKkcVayYhRt4JKkN95O1vjk/h/aO6B27BvM5P9NW36JGmHCnGzFfG3vBx4PQ+cB8pdezGPjK/SVHc+CIHxbXCb3Lv7Gb1/YV4cXz4dt2tIrS2gEo8Ii0IdKyKGRyH0etvtlhBD74wKKtcWXKPmGOSy9QVs6hM4mPC2BR7dcavpL/IIUrHcUaEuH1t6E91Nt4UV2sY67r+x4FgTh26K/j8dLT0cttpw0TIoOZWImZQd9/vIPK5huyMbeNa3W4aI0NZHC/V0Nfbh+m8v0OB3h4eEoE7Ox1XfFelNxPp6GyVpBXYf/d9dzuUyPU9AZFFJml+EMvKRrzXRM0RMp2e/BZg0nfFQ4OqttGFOGHspuSSN/XQmZt6SRkmAi5Z4ynK2BsM9JWVYaJoOOcJ1CSlbgNTucFKZOJzsrBSU6jfwl+aTFKZhyqrpf07e/jOwpJnQGHaYpudiO9X6g3FckNBJjaCTSiAhkObL7Qbn2jRbSN8whcdEkpv95NdkrJ6EsX4QjkF+qH20hf50ZpXgcptJcSo83dW/S+cpMTIvGEb5AwbT1QHd5F29tOdlrJqFbEIOuJIPCmp62BDXheGkmicXj0C2eSeGRnpjnvWWkL09GV5xMYvky7B8HkpU2B/nLJ6EUxKBs3kJVVQamRckoz9kJ/LkHpB5fRkpJMroChfCV5dT1Dh4pwPRcORUvzmH6GgumpRnkv9cAgOsvMzGV3EaJpwFbZQzhBTHontnSc/yc2UNJpQWlaBzK4pkUBtpBA7YNZkzFMYQvX4Zt7zxSSpJRFi/C0XaYwpUzyX7OgrIog/wdi0hbnIxpg73nGHFX+vuuaBymNQXYPupK2Jpx7p5HyqJx6BaZSd9zjJ6jx01FpRlT8TjCH4khu6Y7AID6wSay15pRimLQFZtJ374n8HoN2J4zoywuwN6+neyFMYQXjCPN0TN3NvD+DM5bu9r/tyxKJmXDFk70fg7hOTdVL80kseu97DjQvT9l6yaRe6TXa3xcSVpJAY6uogGOZ0EQhC6XRcKk7rVTe+tm3A0NvPmwxO8eLKF6GDmBb2chmU/7sD5/lJNnT3Lo2fmYjdpa4Hkhl7mv38h6Wx6xweDbmU/mUypZf3RzsuEQS2Qbc5dUowJJj76Gu+FNFk4wkmP/hE/OfsJJew567Ub70+Gi6q/RrHLs452ju8lRV/DEC4FTmmxg/MyVvHniJJ807Cav43cUVQZOw75amPkaux9QsW2XWencjOWgnWof8KGN3NlVyP+1m4bGBnb/XGXFg2VDr83q/L/Yy39D4bK+P4t3fKCt2b8xVpZMS4ageB7KmEVc95H0AZ6IfPbNnsaJ/QdIus/Bqmv34PAA7Qco+UM5vtTNuEuPc2hmPNVV86g46W+ZesdW3E8e59BN8V0b63FmC7kv2pGmbMK98jjueU+SZYzqDqsfOXBGPck7pe9x6JZIqv5cibMT+Kic7O31WO57i5Olb7EtsZ7CjeW4OoFQC+WPvUXDbCvq0dVUjX6So08exj3HOuQJUxr3OO8sPczJB+b0+7f3/Y+dExPKee1RB0dnxrN3eyXVnZB061bcT25noUEhZ249n6yu5+QvZvm30emmbGMBe69dxKHS47gfnEbN9kcD/aOQc3817pLVWHxbKHt/MtseP0zDY49jCQHa6mHCFnantmM7GsnKonIsHziobsPfd5u2I0/bSsPK99g9WWXFC5W4OkF1lzP3ry1k5b3HyaVbyfv0ANXdx46JvLnVuEurWXVDSFdhNykiHusdm3GX1nOyoBD9kUWsdQMo5DxQTUPxk1hCMti8op5PVh9nn8XkbzjI/gyqzUHhi3bkadtpWPkW2+IacHQlv7TjfDmfwo+nUVl8nJOPrWH83wsoPNQMKFgTFaprDnQng54je2iMsWDuelsDHs+CIAh+l8XHghSfxfy7jYCEcVYO1o69VGu+7Z5Pxfn/ORh131LyJuiRgiX045Mw9p6EDAb1YAnZK1XmP78Ks+xvV73VjuHnS8mJlyBYj2VuFtLrjqGTkCFJmO+yBvbByPh4A96PGgMxI+aMVPQSIMVivSOJRs8Jfyg4jqTxMvrr9Mjjk0gKk5FlH75W8O6sonp8HkszjEhIGH+Wg8XnYFe/I2m9BP0vbsu5n0X5fX8WTP9f2pr9G6GQZIgEIom9XukzaRqrxCPLCgY5mRt1kehHgq+1HTwO7COszJ/ory/fMJe8G+qxH+0aRRmYr9aBM+o+lv7YhDwiBFkXT1KvrEYaaSHvJyYkQjCOn0ZSWwOedqircdAYl0vOdSFACLFpuVja9mDX5oUhFuZPi0cCpBGa2AWQrrkdq8m/5ke6PpnY9ia8Qw2iNDqoOjONYstk9EEgXXcfecZ6HH/vu9haJYqMm2dhHAGMCJzxg2JIui4S/ego5OviSQqJRA5txtcG3iN2qq+bw9IfKf7++fEsLG172PUx1Na+xdnvzyHvuhAIisIy5fbhP5hYTsb6AwUpCBhtwWpsx3Nm6IXhg+3PoDwHcIZayPtxoN2EOVjDArHOd6mqUcmyzCV1JBCazEMTFKqPv4UKGMffTvT7DqrPATTgON6AOXlyz3E7yPEsCIIAl8sapjEGDF17Gmxg1JiznOiaytLoWVmk4j2lop/c3/f/gNZqnphfywms6Md0FfrwnlJxPTUF5ZlAUQeowZYhp2mGJiHLPWd5KViCjsB33lYXtiWl2PZ7/N+CfSdQp+Z01UQOA4IlpDAZCQgNBjqg8WMf6t5CEqJLAnVBVQ3kDbWznf+XXbY/4dSc367+4X+wOP36voVfiIQUEgJBIIVISIDa9fNpM76R8Ri6T8gh6CMi8Lb4RwEG421tRpKVfkdzAIiI6tluUAgS/uyksbUZgxzVcwIMiiI6rIlazdoaSVYwaBOlzgMUPplPVeCgkhJX486a1rfOQEIjer1PILA/g2ppovGfr5K7bE9P2TmVOKUF6LXgOuh6oq/p+dVPQg4BCEEKifAfI4FIY0sL6vvLSFi0uru2ei6KvDbwtWn6JyIKOUibTfZP/djBipc3sutkCwSB6msmNjCINJjB9gfAs28OUxzH/L9cFcOCeVuZfy2obc34Rk7o6derojCMDOEswLkmvG0NVG9IpioQ5nMV1aiiAtLoaVhHV+Kob8diOIDDN4353z9/1EwQBGEgl0fCdKqRxg7QBwMdjZw9NQp97zmTDgLvxIfvVFvgw19CliV8H3thgAmWNi+YXz5E8dbpPFzsILXCgoyMfoyMedlRdjzQf7svZYAed62cS1lrMa9VW9FL4NuYScLb2lqc195wrYycsR63zfrFvhUHRphu0k6DhFzMk0jfbUkjo5A/baCxk8BVZe14W1rQG4e++kofFola34SPgf6a/TNERNHoa0LF5O+fc02caI1AP1JTMYjz+y9oAgsfcbCgq49Cht7PL0Tb9xFRGORZPL3ocVKHGOWRhoj3ZoiIQB63Bvd9lvPeY11tJGdbemXNbc2o2v3qVwMVVcuom7iVfQ/4R2Qcm5Ox9a4ywD4Otj8Axh+XcyixK8EMQY7w/580MhK5rYmznWAMAmjhbFug3ogo9CPjWTB3O8WGQNM+/NNyFTXv4jnjwPODXFK1CbIgCMIgBvhIu7Sox6qo2O4FwPOSDXvwbZjjgTFGjME1VO/1ASqeLTYc/mqAhPnWVE68sALbMX/cV+/Cc6orDqFGM7eN12N+4mluO5hP4Xafv91MC7WVJdjrAqM/Pg/Og56ehujRj/FR81eXfzRI7VoZceF8vrPIY43IEuCtZu2L1doq/dLfmUXSwQpWvB4YmVJ91O13DWMROoSGjyQiUvMjDZDRXQw33I61007ZoQZUwPd+JRXvx2AdN/joEoD8/WkkfbiJkhp/W7XFTd3JoUdtYhOnYahdH1hU3E7dgfU4Qm7Hep22Zn9CkCOi0MuBn9CLlUxGoY9opsYdWGB9LvA+DBaywhyUvnEY7zmgsx3vB4ep+5JXmukTrSR5NrLiuL/vONdMnfsYXiA2bhKhtZuwfdwOnU1U73MMvZYIoLOZs20h6Ef7R7N8nkoqNFOHhEahDzpGdX2gPHCp/mD7A0BIZE+fy5E9yeH10zC3vUpFYEG/5/BG7C2BWNAEshKbqXJswRXoL/XMYZzda5xAn3g7RvcmSg5/wNTxE/pN1gRBEAZyWSRM8t33E/dKJiaDjilPqTz07ELMEiBZWLBsPAcfNKFTEsh+O5X7b+uaiAB5VjmbfwYVVhPhoxQSskqp7pUwdQszs7TMysHifOxekO8sZ9svoOIeEzqdDiU1m7J3z/ZqIJP12EL0O9NRDDoU8wqcX3J9U+rchRi3p6MYFBJn24m+o/9v3+cZm8PmZy14l9+CotOhM6WR/2LdRZg+/AqMSGbpffnIB7IxFY8joeowN2b+hrxrAZqo2mwhsSSZiW8cw/P2HHQlZlKqHP73opvD+pnT8LySgW5BDMqafNY2DL1ehuvy2ZwRg2PjJHTFk8isUVh6fz5JI4APKpm+fBK657fg/WA1ExeZSdt+/tV5/anbk0vK4mR0z23C01jOlOJJJK5ZTfVwkg0iybLkoz8+x3813Npy/wL1IBPz73+S1H8sYsqiceiKJzF9+6vUnsM/PbjSf+WZo30PuUsnkfjMMBZKA4yexeZ7p+H9y0yUgnHolmSQ73T7+/WGQiqnhlDxmx+hWzwH22gL1q7Rt/Y9FK40Y1pkpvD9FqpeHIey2EL2gQYIiuf+mydTU+Xv1/S9EhZt4jtiMgvunBCok4zppT3+BGmw/RlM6DRWZVnx7rCgK55Edu0EskxdSWwIqTM2s0R2MLd0HLqicSRUlrPX1+vLzGgLFnkPVacmY425WMmvIAhXiu80Nzf/S1vY29VXX60tEgRBEARBuGKcPn1auyJGuGAdDnLjcnH0OzsXzUMv76N4vLZcEARBEITLgRhhuoh8p7yo/U3NBfuvjvsqlwcJgiAIgvDVECNMF5k8ZsCL3gVBEARBuIxdFou+BUEQBEEQvkkiYRIEQRAEQRiCSJgEQRAEQRCGcPkkTB0equalYTKEE65TSP+9pyfW6iA/wUTu9t53cvFhfzARk8mEYghH96CjV+yb4KHMrJC7S1suCIIgCMKl7vJJmPavpWRvLOWuT/jkpJtt9xl7YlIc5llZmGN7PzRDxvrsEdxuN28+ljq8m0BeJN7fp5O2vE5bfGnqcFKSEE64QUGxlNG91x0uSs0KiiGc8CmlPeWCIAiCcAW6bBIm1evFF5NKqh5AQuqdAQUbsT62lKzYXmXfoBMfDefBJJeQ4CQW7m6gwTGf7i4MTqK4uoEGex7R4lpKQRAE4Qp3ySdM3i25pCSYMM1z4NuVjzIqnHDDdMrqAeqouCcRk6IjPDSc7O3a1oNRcT2Xy/Q4BZ1BIWV2Gc7AjJ6zOJHp80vJtaSRNjGRxBklvZ5R58XxeDop0Tp0o3SYpuRiqwncrXJvISkmhenrXDh/PZHwUeGEK9nYu29mKaEeKyM71YROp5AyuwJXa1fMh3NNJikmHTqdDlNqNjYxrCMIgiAIl4RLfuxAP2s978wCdUsmylYLbntOr6fVx5L3xyPk4aXCkoCzV7uh+Hbmk/mUysI/unkt1odj/nTmLhnPO2VmAJyvN1L85j7Msopr5XQyC+wcet6KjEz05Bwqf7GNJL2Ka2Um6Y9XYXk5B/3UVbzjXkV1gYki+WXeeUw75OXF8Uoj2152s5lqCmdk8sQWKzse0IPXTunTkOc8Sc5Y8NV7UI2a5v1oOfQnntz1f/sWBkVx50MzSRvVt1gQBEEQhAtzySdMXw2V6q12DD8/RE68BOixzM3iiSwHrg5/wqS/2YpZBpBIusuK4fcOnB1WLMESsbdZA9uRSLrLQtxLJ2jsAP2QvSmReu8CzGMAzFinGpj7j0ZAD2FGjGF1OLY7sfxnKvoYY9+mA4j44R0s+v7nmtKrCI3UFAmCIAiCcMGGPMV/O/nwnlJxPTUF5ZlAUQeowRZ8gAyEhvVaQB4mI7f68KlAmA/nbwsp3VqDtwPoOMuJjiz/U9iHJKHX99wNXAqWoCPQMszMKsdKKpYXMSVBwvyLJaz6ZWqv0bT+tfz3K2KESRAEQRC+YldowiSjHyNjXnaUHQ+cn5I4gbNeLyr4r6475cUbJiNLoO4qJHurnvX2d/wjRfVlpGWd7dPevx69rU9Zt0F6XDJamP+shbx6O4X3ZJI/1s3mjMGv7xMjTIIgCILw1bvkF31/NSTMMy3UVpZgrwuM8Pg8OA96umv4XrdRVa9ChxfHH6ponGohNRjw+VBlA9EyoHqwP1OFSzO8NOpaAycOHsSjAh1q/w/k1fK6qK4JJGlj4zDIKmrrMMatvisRETlS8yMxQltPEARBEIQLdnknTK0OClMTMSkJFO71UZWjQ4lLIXujB/BSlZOCyaQwsbga7wuZ6KJNpMyz+6fd7ixn2y+g4h4TOp0OJTWbsnd7RoribkvClZeCoiSQX5/B+lIrMiDdOZ8FUgUTDTqU1HycP7Ri1gwCxd63hDwqmBKtQ2dKp6K+b7xfrTXY8qZgMujQRc/AEbOKpXefP/olCIIgCMLX7zvNzc3/0hb2dvXVV2uLvvWcxYk8HLyJd5YlaUPfPh1OSiYWEfr8PorjtUHgYCGJxaPYVl3cc48mQRAEQbiCnD59+jIfYRIuAgmkWtZaFEwztHf6NqHcY6MxWPpa75QuCIIgCJeaQZYgC1eE4CSWOk+ytJ/y4mo3xdpyQRAEQbgCiSk5QRAEQRCEQYgpOUEQBEEQhGEQCZMgCIIgCMIQRMIkCIIgCIIwBJEwCYIgCIIgDEEkTIIgCIIgCEMQCZMgCIIgCMIQRMIkCIIgCIIwBJEwCYIgCIIgDEEkTIIgCIIgCEMQCZMgCIIgCMIQRMIkCIIgCIIwBJEwCYIgCIIgDEEkTIIgCIIgCEMQCZMgCIIgCMIQRMIkCIIgCIIwBJEwCYIgCIIgDEEkTIIgCIIgCEMQCZMgCIIgCMIQRMIkCIIgCIIwBJEwCYIgCIIgDOHySZg6O/jTn88yYekplKWn+KmzQ1vjyuG1kW7Ixj7cLvisnV+tOc0jxzq1EeGS5qZ0pZlCt7ZcEARB+LpdPgnT+/+k9P2r+PX8a2gouYYNE4O1NYSBBF/FT34YwhTdd7SRy0tHNfkJAyeKvhcyCQ/XoSgmcndqgh+sJmX5aly9c8bOY5QsVxjxiMKIBeMwrcyl5EhTrwqXH+/emSgv7tEWU12QiKLoCB+Vju2UNioIgiAM5bJJmNTWTpqvGcHE8O8A30ES+dLwBQVz5y1h3HXtZZ4wtXrxDnGyl+5eT0ODm/V3agKhUcgjIxilPeKDYpif38C5lW/x8tRItlctw96mqfNNukpbMDg5NBJDaKS2GPPqIzSc2ExWmDYiCIIgDIf29HHJ+fi9Fm5ac5oJO87RfKKV+MWnUJae5Xcn/XG1sY1fVZ4m/slTTHjaR1nd54GWn/Pi/3uGCU+eQln7CS8eaOamX58iflULr3/Wvfn+7S0hJU5BFx5O5jo7JZZEFEVh+joPAL79ZWRPMaEz6DBNycV2TO1pq9ZRNX86iUo44aN0JForcHWNiPiclOWkYVJ0KHFpZK9z4guEXGvSSYzWET4qjdItpaQnmVCUFEoOAvhwrssmJVqHTkkk/RkXvV5xEB1s2BTog0WnyDv2rz6x31We4Vd/bSWn8gw3rTnNTZs+5dDwNjxgH7geTyGx2NlTscNJYUIihQcDv3/ooOSeFBSDDiVuOoUveQIBD2W3pJG/roTMW9JISTCRck8ZzlZ/zJaViBKXi/1UFdk6f9+mrawLtB2GsAjk0EhkbXmXEZHE/sjCeBrwtATKzrmpemkmiYvGoVtkJn3HAby9mnhry8leMwndghh0JRkU1vSMTnneW0b68mR0xckkli/D/nG7P/C31aQsTka3IIbM3Q5K1plRFiUzfXdDYJur/e2KkknZsIUTXYczwDk3ts0ZmIrHoStKJvGZSlznesUBKSwK/ciIvoXDccpOtimRwv3agCAIggCXQcJ07Y8ieOPRa3g3fQSR0WEcWzyGhpJRPKQDPmvn1y/+k+aJkby7aAxv/McI3vzzJ2w4DXAV9/50NO8+OpKbW9qp+Md3sT06hmMLwrn5u5oX0Zq6lHdqG9jxy2iqV5ZB0T4aGhrY8Z9G+NBG7uwq5P/aTUNjA7t/rrLiwbJAUqTiXJJJYZ2Zp50n+aTxKNsesxAXDODDPj+bKrmYN0+cpKF6Cfqt2eRv8Z+Ckx7dwZETh1g6vpa1TzWS53DTcGIfCyeAun8Fc5/ykWVv4OSJ18g7tZfqAaal+grm/jmjeXfRKJZ8TxsDOj/nT/VBLHlwNG88KnPvZ22UHu59hh7AIH2Q9B+3Ie1y0L3ErMbB3uAMrBOAjjrKZueyN3YlhxpO4v6jhZriXCo8gbodLqr+Gs0qxz7eObqbHHUFT7zgBYzkVB2hwVWOZUwWm09+widnT7KvKDbQcBhCJ1NsmTZwwnSumbp37DjDkrlxNEA7zpfzKfx4GpXFxzn52BrG/72AwkPN/vpntpD7oh1pyibcK4/jnvckWcYof+yjcrK312O57y1Olr7FtsR6CjeW+6cDf1DAO4sPs+MnCtV7KsGynYYnD7NjqgJtDgpftCNP207DyrfYFteAoyvRAtTj5ZScsfDy0uOcXPkWr91tJW5Ed9jPOIclE6/XFA5DmJ6kqVNJ0msDgiAIAlwGCdOgPmhn54gQHhofjAREGq/mfmMHO/+n70m/nSDu+HeJ64OB4C84LTU1jwVT/adZSQLvziqqx+exNMOIhITxZzlYfA521QMdLuw727AWFWMeK4GkJ3aCEQmgtRr7rmhy/suCPhjQm1nw82gcf6ruHmXyU0maswCLHgiWkIKh9o29nL0tj7zxEgTrsczNIOmiTEl+h58kSlwfBBBEgiGIpuahF4YP2gfjrdwWvAtHjb+u65VdcKeV1GCgzk6Vx0JxkRl9MEjxeeTdWItjb1cPSJjvsmIMBjAyPt6A96PGQOzLiiLp+kBC01tnPWXlCiMK4pm4P5JVuYWkjgA636WqRiXLMpfUkUBoMg9NUKg+/hYq4Kt14Iy6j6U/NiGPCEHWxZMUyMbqahw0xuWSc10IEEJsWi6Wtj3YP+h5WQCMc1jwA//0mTQC8BzAGWoh78cKEiEYJ8zB2msKTZKvx3DmLex/b0AlBP21Uf5jq7eRJpJGh2hLhyalMv/ZcrJitAFBEAQB4KKcdr8p6j//RfPVQUT1SvuuDfsOTZ900mfxR1AQ14/6golSgMFo7DMq0fixD3VvIQnRJd1lqmogzwfgw+czEDe2O9Sj1YsXPfoxPUV6vR7J58UHvV5Dxmg0dv8G4POdxTBW33Ny1BuQ8fSqceEiR/b0ixQEdPaetuvfoH0QnIT1Tpj7ioulE0LZ9TrcVpbkr+RtpPGUndwER3c7VJW45J6ESZZ7ekIKlqBjmHOEFyoohvn51awKXk3KhiaksECyca4Jb1sD1RuSqeqq+7mKalRRAW9rM5Ks0N+ATGNrMwa5VzITFEV0WBO1n/auBQbd9X2OLbWtGd/ICRi6juerojCMDOFsVwVjATtmb2LFKzNJ2JnM/emPUxzXTxIoCIIgXHSXdcIkXf0dIv/ZSVMnXBs4yXzc+i+ilPOTI+kijaUZrpWRM9bjtlnP/3bfISPLPhq9gPabuqxHH+zF659hAsD7oRdV1p8/TaT5qxjGjOKst9c4lM83zDVMX41B+wBI+g8r5Nlx3RWKo+M2nh4fCIwxYDDm8LRrlX/EqQ+P/z/nlWt0BH6GqvdFXZ9LsdFC6Z5jWO6IhxFR6EfGs2DudooN2spAWCRqfZMm2fUzRETR6GtCxeTvn3NNnGiNQD9SU1FDGhmJ3NbE2U4wBgG0cLatZ0oOQG+aQ/kjc/DWLiNzcwH6ok3kaHdAEARBuOguUhrxDTFK3Pl5O7+r6UAFmj3/ZIPnKu6Mvdhn0x76O7NIOljBitc9/qRF9VG33+VfDBychGVqG1VPleE8BXT48NTU+WOSGettJ7A97cDbAXirWfuHE5jvMp93wtWKvWkqobsqsNWr0OGlutLes5D8GzBoHwDEW7EG76Kwhhs8AAAgAElEQVRspQP1TmvP9GG8lawxdkrXOf190KHirXFSN8SVb91kPXqphur9geTxomaNkVhvnQXOcqpagKAJZCU2U+XYgiswMqSeOYwzsKZI/v40kj7cRElNAyqgtripO+mPxSZOw1C7HttH7UA7dQfW4wi5Het1/u0M6PppmNtepSJwawPP4Y3YuxagA76PDuPy+V9DP8aEjIpPs+j7grU6KcvJp6peGxAEQRDgck+Ygr/Lr7KuJvLtZiY8eYrJfz7HxIwI7tcBne0s/s1p4le18vpn53hkzSl+8odPOTr0Eh08z2WTEqeQ/ttaan+bjhKXQv72wEl6bA6bn7XgXX4Lik6HzpRG/ot1gXVIEuZl21g4xk52QjjhhgTSi+00dgDIWFdvJstXypRoHcqUIjx3r2f9LD3gwz4vBVP0REoOerFlKZiSsrF5Ajt041IqfyFRYVbQxaVj+54Va6+pvQF95u+DCSvO8sQ//sWfXjpN/Koz5L09jIXdgxm0D4DgWKy3QdVLKtb/CEzHBcrnP19O6uGHmaLo0CkmphfbqR1u4iOZWbDsRmryTOgMCqYCx8XNmQxzKP7+MUpfP4xKCKkzNrNEdjC3dBy6onEkVJaz1xd4Rd0c1s+chueVDHQLYlDW5LO2IbAg/Lp8NmfE4Ng4CV3xJDJrFJben0/SCPDsm0fK4mTS99dTuz8bZbGF/JpAu9BprMqy4t1hQVc8iezaCWSZetYjqSftPLxuErqiceh+swl5WiE5uu7wl6N6cO0/SO1wk1dBEIQrzHeam5sHXbRy9dVXa4sE4ZLkeyET0xtZnLRZtSEBoMNBbnQFqa4d5Awn4RYEQRAAOH369GU+wiQIvQVLSLvyUaJN5O/SBq9s1QWJKKZc7Ej9rjsTBEEQBidGmARBEARBEAYhRpgEQRAEQRCG4ZJOmM6cOaMtEgRBEARB+Npd0gmTIAiCIAjCpUAkTIIgCIIgCEMQCVN/duWizKjo82T6i6FuZRqm+dXaYuFCbM9GN8OmeQ7ft1kDZWsnkf83bfmXdM5BdvFMKq6cjhQEQbggImG6bKjYcxLJ36stF7r4XsgkPFyHopjI3akJfrCalOWrcQ3jxqVdvLWV5K4zo1sQQ/giC9l7j513o0zv3pkoL+7RlAYu41d0hI9Kx9bPzSAH3dfOA+SXzKTspKb8UvRROWnPbBrwy8WF9g/1ZaSNCkenKKQ87uwbu9T6Z6D98VSQHq2gGxWOqUDzHgRBuOyIhGlAl9jdajq8eD5s05YKGtLd62locLP+Tk0gNAp5ZASjvsAR72tpJ27aeo6WHsd9vwXvXxZR8XHfOnJoJIbQyL6FgHn1ERpObCYrTBvpMeC+Eok8MhL5Mrijh+proHGQG8d/qf4Zm8eOEw28syxVE7nU+meA/TH69//QY0mEakKCIFx+vsDp4wrTUYstJw2TokOZmEnZQf+chfqSZirowwqmG7Kxdz3bTa2jav50EpVwwkfpSLRW9P/cN7WOMouJtOWuwKiFiuu5XKbHKegMCimzy3AGXsS1Zrr/sSn7Pdis4YSPCkdntQ34rf5icK1JJzFaR/ioNEq3lJKeZEJRUig56I/79peRPcWEzqDDNCUX27FeYy8eOyX3pKDowgk3mJi+vLp7ZEY9ZiP/lkQUgw7TxExKd3W9Cw+22YmYDOGEJxVi+302KSYFJS4fhwqoddjy0jAZdOjiplN4wPfFUtqwCOTQyPOf23fSQf46M0rROHSLzEzffqB7X2N/nM/8RBP6kBD0xmmY5SZOaKaupLAo9CMj+hZ+WUGRjAqLRP9dbSAE39+Wkb48GV3RJKZvdeAJjJhVV00izeHurqm+Nw/dM1t6jtOTDkoqLCgFMYQXTWL6Kz3vszffkQISl87D3tXwzB5KKi0oReNQFs+k8L0Gf/mnDnKXT0LZuAXP+8swFcQQXmSmUDNl+PX1TwNl6zLI372azHUZpCydREplJc6u7xhthyl7LgNT8TjCi5JJea4nZt9oIX3DHBIXTWL6n1eTvXISyvJFOLraDtQHXfrdH0EQvm2+uqfUXubUvXZqbbtx2/R4XsjllgdLGH+oHO133b5UnEsyKazLYrNzB+YxPuqOqRjP62UfjoJMbGNX8dpjSUiAb2c+mU+pLPyjm9difTjmT2fukvG8U2Ym6dHXcD9aR+mUGTQuc1M+Vbu9AZx0snb9u3j7TEMFMy79Qeb88Lyd6iPp0R0cedRDmXkiK54az2aHG8sY1X+S/dBG7uwq9GW7acjQ492Yyy0PljH+zWKSqKMsJ5+9E9bz5gkLetVD7SnZn9yo1ZRkrcBXtBv3z4yoB0vJzMpG3v0aeTFGcp4/Qo6viszofMoOrGLH0c0YUUGCupW5FNZNZUftPlJxUmKZjm/MF3gESuhkii2clzA5/7qMg9f/BvcjyUjnmqjzhfSbiHmPbcHePpkl12sCxjksMWgLvywF64xc5BHa8gYc9ZHsWHCYVA5T8kwu+fvi2TFV0Vbsq9NN2aZF7DWu5s37pqHvbKC2JeK896l+VEnmnz8g6/7NWOVAu40F7L2hnEMPTkZurCS98lEqlK3k6Sysf8zC+pp56PZN4Gj+HPSa7QFfb/90HqPq77M4lL8dY1ADFeW38cTbVl6bGgWhUYyf8Dhvzk5GjxvbxjkU7Z3GPosJ+ABPxJPsm21nYuUBLEUOLC9bcHjA8oPB+qDrhQfYH0EQvlUGP2tewaT4LObfbQTAOCsH6/KHqa5h8ISpw4V9ZxvW3xRjHgugJ3ZC3yqhweD6bTZF9TlsslsDJxmV6q12DD8/RE68BOixzM3iiSwHrg4zqRf6V7pmIg/8MlFbyoiRX2SDKklzFmDRA4HHanh3VlE9Pg93hhEJMP4sB8vKJ9hVX0wSDuz1Zua/bMEYBoQZSep6btlBO3Ypi22z/O2kG+eT95PfUbHTQ94jxkAlUDGQ8XAORgn8U6NeqvfWYv75DlJlgFQempNKxSvdTYYhiqR+ztuG0Qpna17F0RiD1RBFrOZhttUvmck+1IBvRDLz712PRTu3MtJE0khN2UVgvN6kLQJCME+ZQ2ooQDIPpcSTcPxdfEMlTCf3YD89ifnzpmEMAVA0+ywhfbqHws1bMGZspfj6wAN/Gx1UnZnGkl9MRh8EXHcfecb12P7eTJ7u/Gm2fn3d/fMjC8YgAIXxY6Oo8DUBUYCCeXxXP5mwJsaz4v0GwL+dWCUeWX4XgxzCjbpI1JHga20fdh/0vz+CIHybfJEz55VljAFDV+8EGxg15iwnWvvU6IcPn89A3FhteY+2mjIefslF241ZGLq/4vvwnlJxPTUF5ZlAUQeowZYvdxXY6UM8d4EjTD1kjEZjn5LGj32oewtJiC7pLlNVA3k+gEZ8sh69dvgCUE/58OmTevoVCb1+FN7TZwFjT8VgI9G9fvX3q4Re3zM+JI/pdzzjCzNOW8+20HKe2GChdIyV4ox8rNcGEgbAfMdWDk1rp/HDVyn94ywKZ25n1Q964l+vSPRhPSdpfUQEtDf1f4x83t7z/5824QuNQj/QCEhnE/Y/LcP1qUSO3CsRammi8Z+vkrus16LtcypxSgswzITpayUhj+zZLylIgs5AP7Qdw/ZKOTZ3A2oQ0PYB6g2zumoihYRAEEgh/i8FauDn8usDQRC+KsM9a155TjXS2AH6YKCjkbOnRqGXAR/QEZiaCtTrOWHJyLKPRi8Q013Yh88Xy/o3l3Bwdib5G81su08PyOjHyJiXHWXHA9pJoy/hoowwcd5RYrhWRs5Yj9tmPW9ah7pRyL5avB2c104ao0f2nujpV1S83rPok0f1rQhIfdrKyLKK65SKf8QJfL5+04QLEElS6uPs+HE+zt35ZG6sJK4on9iucGgU+lDQj55LXu0miv7mhh/E997A16gZb2szXSdqb0uLfzE7QBCovRJj3yfNPb+ERiJ/5sZ7Dug312uC8Vt4M6ycW6rKsSwoIDUEiIjCIM/i6UWPk3qZr3Z0/aWAsvZ8XnvUgn4E+Jy5JPQs+epF00Hfoj4QBOHLER8BA1CPVVGx3QuA5yUb9uDbMMeDNFaPoa6a6g+BDi+OTdup7VrUHZyEZWobVU+V4TwFdPjw1NT1WZwt/8SCeWwS88vux7s8F5sHQMI800JtZQn2ukAq5vPgPOjpaYge/RgfNX8NLBJXu1O2gQUFExE58ryf0C+YL2np78wi6WAFK173BPbFR91+l/99xtzGVH01FSur8apAq5e6Y15/vRutWDuqKNvib+c7WEbF/jisdxq7t90/Peab4nBuqsDVCvic2F7sWUh+4drxvH8YTxsQFEm0LgKpo522ToAmnEcO4DrTjHquHe8HW7D9rZ1YwxDTX1+pdqoPbMLVBrQdxvbuMVLjJiMDBjmKE/9nD3Xn/LHfvXe4p3+uncbUkW9R8ZcD/qSpvYm6j5p64kExWBJNGH/0OKsMdh5+JdDWYCErzEHpG4f97Trb8X5wmLpPuxriTyia3qU6kL+q53rFLiG+T5uRZcW/zsh3gLVvH9BW6d9w+kAQhCuCSJgGIN99P3GvZGIy6JjylMpDzy7ELAE3PsSSDC8lSTqUuEyq/p8crF1rdJAwL9vGwjF2shPCCTckkF5sp7Gfq+Sk8fN5+gEfK+ZV4OkA+c5ytv0CKu4xodPpUFKzKXv3bK8WMlmPLUS/Mx3FoEMxr8DZz3YvDh/2eSn+K/MOerFlKZiSsgPJHTA2h83PWvAuvwVFp0NnSiP/xTr/SFtwEgufX0XswYdJMIQTHjeF3Bdr/e2kVJY+vxB5Uzomg46EPCc3/mYzeTFARzWFqYkocbk4fA5y40wkzijrvsIw9pfrWWq0k2nSoZhLabsji7gvmfgBnDi2ivTl49AVjWOio4WsjDkkBf5V+OrXM3ftJHRF40jYsAUmlrNq4jc4DROUTE5iM0Wrk9Etnkf1dU9S/pMoAGJTC8hjE1MWjsO0rpLQH80irutfd1A8C+9bRKxnEQlFMYQvziD37f6GV6Kw/u/HiT3yKIW1zRBkYv79T5L6j0VMWTQOXfEkpm9/ldreSdENc1mS0ETJSn88972mXsFLR+rUfIxH5qAUJZO40UH0uGnnj472Zzh9IAjCFeE7zc3N/9IW9nb11dqbi3x9zpw5w+jRo7XFgtAv3wuZmN7I4qTtC1w991XqcJAbXUGqawc53Um13yW3r9+EQfqH+jKmWxtZ4lp14Rc9XCI8a9JI/3glR1YPesmIIAiXsNOnT4sRJuFbJFhC2pWPEm0if5c2+PWqLkhEMeVix7+I+DyX0L5+E4bTP5yykWlSSFlymd4l21NBuklhylO1SP2+SUEQLidihEkQBEEQBGEQYoRJEARBEARhGETCJAiCIAiCMASRMAmCIAiCIAxBJEyCIAiCIAhDEAlTfzrsZBumU/GhNvBt4sP+YCImkwnFEI7uQUefqOf3mZhMJkyKjvCEwv7v+XSwhBRTOrbe/bQrF2VGRZ+bdQrfRm28vraUu3KWcdesAm5de1Rb4QpUR+mURAr3a8uvUG120ovmYR/inlVq7SJMJfOwt2kj3wbN2J4ZR/Z7vR5VJFy2RMJ0xZKxPnsEt9vNm4+lnndpt/E/t+F2u3G/nEecJtbNaCbrZ1bGX8SnuQhfwuf1PJ27mX2fawNfhVBuXlDMn2yP89ufGvmuNnwRqAdLSDOX4vryt3T/5nQ4KUkIJ9ygoFjKqNOEvXtnorzY6zl1Q2rGuXcR6cuTCV8Qg7I8l9K/9XoMDkDnAfJLZlJ2sm8xngrSoxV0o8IxFfR/qwZHno5wnQ4lOpOqU5rgB6tJWb4aV59nU3550pjJ3P/j24nr97E9F8a7bw5pr/R3c1Yuu/4ZzEDHT3VBIoqiI3xUOjbtfuLD/mAKmRs92oAwBJEwCRdOb2b+EzkkhWkD2vRL+FqoZ2hs0RZerjzYllcR+195JF3uh1NwEgt3N9DgmN/zjMIAOTQSQ+gXuXt8O772KHLudXCy9DA7JsPvtpbj7HOSjkQeGYmsvSOMMY8dJxo49FgSoZpQDwlz6VEaTmwjS3sz0dAo5JERjLrYZw2dheI7LMRexO2eODPYHecvs/4ZxEDHj3n1ERpObCbrvM9mABlrURa+lStwXKxHcl4hvsY/7eXLtzOXxIRs7IGpJ9/+MrKnmNAZdJim5GI75v8KrO7NJ/GWMjzdLVWq55lIW9NTcrGpL2Wjm2HreQDwhxVMN2Rj7wB8dvInmlBGhaM8aKNqXhqmaAUlq6r/J9wPl7eK3CQTii6cEeHp2LTzbx212HLSMCk6lImZlB0czqs1sa1oDctf+CO/enQd9+WW8svfuWjsGi35tJ7nl6/jrnsXcuusEu5b/gbHu57n9d87yX2ghFvvWsiv7C4qFpZyV3YJC+z+D80zh3ayIK+EWzMXMuOBdax+85NAQ+DUUf6wdA13zVrIjNxnePrNMz2xQbh+t4zcrT0fyp+9uYFbF7/FGYBDVdy1/C9sW1fJLxesISt3Hau7t9uB21FFbk4JM3LWULLjDUoeCIwKnforC+7tNUL0+Uf84eFSnu6a7Wr5B9tWr+Oue0uY8cA6Sl6qpxWAM2xfXsqMn/+Rt9WjLM9ayK2ZC8mt+ijQEFqPvkHJgmXMmFXCXQuqePVEf3OsGp++w68e2MwfNm3wv4+8dSx3fMRn2nr9GLR/GOJvAlBvp6reQtbNvYYvhzqe1TqqCqaTqOjQKYmkL6nuMzXs3Vvq/3cbHo7OlEbhzp6o56VC0pMUdAaFxBmF2OsDw1pDvKb39ZLudimzNzCcbu1NCotCPzJCW4z3+GrSlyejKxiHsjiD/O5HzkRhuTUfqzEKKSSSpPGTifu0CW/vUcWgSEaFRaK/2MN+YRHIoZH+hz33on60hfx1ZpTicZhKcyk93vN3l4JacL2eS8qicegWZZB7wN3zDMOPt5C5fBJKUQwjFuRi7zNr1Y5rXwHTFyejK0om5blKnL2n7E46KKmwoBTEEF40iemvHPBv92/LSClJZvq+YzjfsBBeEEN4sWZa8Gvunz5O2slcbPE/egjgzB5KKi0oReNQFs+k8L0Gf/mnDrIX51LV65mFvrdzUSq29DmmBzp+hhSTRVaMA9uu4Xw2C10u84cOfPXUY2VkFnjIen4H1rHAhzZyZ1ehL9tNQ4Ye78ZcbnmwjPFvFpP0kxwyfA9TdWw+xfGA6sS+Nxqr3ajZqlYHx//8LJuOaz5tr0ki/z9/wtgLTWtlK+WHrJTvykWXVULVYzs4eiIJ1C85BqTPYr0ry7/WS7Fpo6h77dTaduO26fG8kMstD5Yw/lC5/1l8g/n8Yw5+eBOb1tzD6M/PsH3ZM6ze9T3W3jEaRo4mfqqVO/7re4ymie2rKnl6ZwLrZ0bBD+9k/XN3cnxDKQte+ivf+9Uj/ClhBJ99Fgw08UqVi2vmFPOXG0OhpYlGwgOv18S2X/+Rt//tpzz7WCxhH7zBr5ZWsT3mF2QY+uzZF/bZe+/RWPIIv/1hKJ/99x+Z85s3cE26h6QTu1i+rY2MZSVkGNo4WPlbiluu42btBs7Txr7Kzbw6MoNnNycwuqWOpxdXsWrMIyydOpqMx4rJOPsWC/LqyXgxm7SrejU99Q5Prn6Ha+b+gj9NjuD0a5v55bo3MK29FVPvev1pqeP4qEf47dooOOtieUEVz8c+ys+jtRW/iEH+JgG+/dWcmJBDau9jZtDjWcW5JJvCuiy2HX2NVJyUzMimcNwhNt8t9/y7Xf0y7gwjeGs5Ien9260pJbu4jqw/utkxHup+n8mM2SswvrmUpMFe02cn+8Eq5GVv0vAzPd6N2UzZ3kZWr10eknEOSwzXawrd2Bx29DP2cDIxEj5148H/zMA+Optx7nuVE6ZZpI7oHVCwzsj1P2j4YgqdTLGFvglB+wFK/lCO79atuH+soL5fTuaGecgPbyUvDNT2A+xq2cSOpeuRGyvJrMinzOig+Drg2llse2wWtGwhfXnfaSXfkUVk7lFZOPctXru2GcfWmczdEc87Mycjdbop27SIvcbVvHnfNPSdDdS2RPg/037wOO8sfZzqrZMoCtvEO3eY+mzX72vsn97aD1OyaTVM28qquEjodFO2sYC9N5Rz6MHJyI2VpFc+SoWylTzdNLJMq6g43ERWWhTQTPXxY6SOX03gqPXr9/gZDj2p/x7NigMumGXWBoUBXOip+AogIfkcFObYMJZupniC/5Pbu7OK6vF5LM0wIiFh/FkOFp+DXfVAcBI/vRvsW13+TbzrYO9YK9aYnq32L5jv357Novz7+/7MvvHCkyUt2cr8XyYhwVf+mAYpPov5dxsBCeOsHKwde6mu0dbqzwiSJicwGuCq0dw8KYrjh7tGUUaTNPl7jJYAKYqbb4zidGM/o0H/NonZCaFAMN/9LkAohmvAffAo7hYgIgpD1xeyD1y82hTHz34ay+ir4LvR/87tP/iYfTWa0Y4LEZXAzfH+gf3vxnyP77V+QqMK7kN1fPLDSdw+NhiuCudGy4/43nD+xmodr9eMJuPuBEZfBYyKZfb00bj21Qb6Z2Bn3j6E64abyJs8mu8SjOGmNNI+reXgcC5qCLqOtEmBk/WoBG76txZch/vp9y9kkL9JwIn/48UQYxw4sdcezx1Oql5SyXpsPqkyIKfy0L3RVL9SjQr4XrfjjM9j6axYZElCNiaRFDjz1L1ip/G2+eSMlwCJ2AfmY/Htwq49ZrWvWVONU7aSN6vrsyAPa5+z2TCMNJE0Wrt4JwqjDDU1Dlyf+usYR/YKdx6jdK1/5CXz7yZW/W9r35MoYLzeNPCJ+4JFkXS9JnHzOLCPsDJ/ooIEyDfM/f/Zu/u4qMr88f+vCGQm7gZyYNicGl0nIYWVEAvvElNrrEi2VWN1Vfq0+LMtdrEV0gzTNFJLijK+2m6om6GZi7km3VioaViKmGhguDIFLgMKDCAyOMT8/pgBhmGYwXuz6/l4zOOh13XOmTPXdXHO+1zXdc5hdr8TZBdaekrcwokbNxyFC0hum0lcvypyvrfkdauZ3IM7CIxMIi7QHVz80YyKQXL8S/P8oNNfkl09jMRHxqCSgsRDSVhg12EpR65a+bSrImvD39nVbwVrRinNSRU5ZNWMYZ6mo3xmq06Q80Md4I5m6Bi0h7LNIxbNX5P90yBiQm1+p9320zOq/ioMWq24QecCiB6mbunInpdMgU5CnKLjT6uiUo9hVxIhfVPa0wyGQGZbejaDpsQii8kk9/kwJB/vQvXoHFTtS3anhR92rL/8PUxWJKq+BHZ79rnMegcS2NayXAPx7V1LqbOzOgCueEk6mqSnh5RejU00AJ6Np9jx3qds/b7GPCTUWMP5Qe2LtvPzD6DzsL0XY5+dRa8Pt7P0r1/gd+/9zJ42FLUHUFtPQ2MhK+KLWNG2+Hm4Y0AT2PR4XDAPqTmwaWceEzhb34SXr1fHJGkvL/xurmxfqltnmzj7sxd+Vkd5v1u9oLHBXD4dyV1U1zZx/vvtxE7f3pF4XsqE9rERR6T0ap/Q4Yq7hxtnGxvAHNZeJAd1YqE/W4vkNgczSWzbc4sO3ZlScicpyWprQi0GDCMMGADdGT2SPqougQVAxZlaAvsEdgRnroH07V1Bkc1kWdvvNOj16HtHdrR1AgnsLaW2Y5GL5EPsn9Yh+XQFs5atRhE6i0UPPU5YW3G4DCLxyRzimqsoOraO5LfmwrMriLEOqq4SQ2Mdeo9BBLYfo9xReHujq2+biO6Pov1PyR2FtzuGxjrAEjTYVYeuvpmC4xNRftWRamAM+p+Bxir0Un8Ul7uH6IqRoN37d1Iq6uk7zr8jUKuvouLcDuJfsupdMxoIVtYDPvDbGGKbF5B1ahaJ1V9y+PYY0i9jHUs8ZUgM+o4hUsEpETB1p6UCHv2cr2a8zLjEl9F8vphITwgMkCGbuIaSzBj7V7+qWOL6jyJrZy6KXQpiNts7RNuy9DDdb5Ps4o53T4KlFvNJAYAzFd3OT7K7v1fCmQoqWkDhCrRUUHvGF6uY04EWqmubwDLlskbfwHkPKV5AyYfr+df5h1m1IgS/XnD2s9XM+L7Tymb2hpgk/oya9gSjYk6x9c13ee49P7bM6g++3njdOpS5GRMZaG89Z1o7JkaY99s5Tw8pDWcaOA/moMnQxFnr+Sc/Wz43AzRQU99iXs7TC8+bG9DpoW10pqa6ATy8bEK7Fs63r292q68Uz4gH2DI35MLvZmut52wt4AHQQkOtEc8BPQwmHZVPd3XSlu0pxdDouEw7tWdXBQpFGHOy9zAvyDrDorcMw24deroOmQQqAqkor8BAkHmbLRWUnvFFYTupl87fKZHJkOkrqG0BlStALbV6x/vcY+5qYqLXEDOuhMwNM5i8TUnJlOHt2RJvfxT4oxgdT8w3M8j9CWK6vZ31ypF4+CNrLKOiFRQuAM3o6utRqNp6QqrQtcfXzejqm5EpnfUG+aDw9iEq4ku2DbezrNQH2fkSdEagm84Vcz1dL7fy11Ehm8nnU6pIWLWAtOBNJAZi7lmVPc4bC14g0t5x3mUQsXe7M/nAPgY3HWXw4AVd2u6lMJzVo5fIrt554QZgr5oEANdgNA8GofrDcpYHZfHXpXkYAMXDsYTtz+DlnVpzkGLQU7y3wKpbU0bM1Hs5/EYquxQxaPq0ZzjkJvHA28fm4+U8npX0URBYnEtuOdCiI2fdVooucOLp5WY4mkXGVnOJaD/MJNv1QaKse4PO5pEWl0DWCas0AIwU7PqaEgPQ+CPZuZUMDO+PJ1Bd34KXrx+evYAzJ9j0xY89mnwMNRz7rsoclHj4cYevKzRZCuj2QdzvXci/sn+k5mfg5xZqTpzgx053munJWTSdFKsJwgB+/l5UFJ7gx/NA44/s2NUxwdoRdUQQXod2s6O8BX5uoCCngJK2O5w8/bi11ym++a4JaKFi17fsb9sXSX/Ghtew48NC877WFsmO9IoAACAASURBVPOvnBrCRgV39C55eHHrzZUUHLWctC0F5BcRxsDjX/DPQ5beufMN/Fh4qn0CtmOn2PmZeVj0/I/72Pq9N2GDnfcuOS4fB3Vi0fcOFRUnLH9jPeEaSexEPVnLMimwXDEYtHnkFZu3IBuhIexgBilbzds06Iop1przgh7SEPhJGpmHDYCB4n+kkSObSMxg83a6NURDlH4rGZa2of0wo/3GkEtTRt7xEvStgNQflcwdQ4vl5N90lJwjR9HWN2Mw1lF8aB3ZeiXBdoK7q6LfBGJas0k7UGYe+jy5moyT/YkZaOlBMuaT+eU+9K1gqNhI5kklUXc56l0CcCfq7jEU7VlBdmXb7y4jT2sZygsYw2iPr8n4dJ85aGquovhUVae24ivzp/S/+WiNQGszhqt4q39X7kQOGoMqYAbpYyW8nZVOsREI1BDrmUPqF/nm39HajO6nfIqtJnqrImJQHE8nTTuImIF2gsdLoD2uRdbffq+rYJ8ImJxSEJO6nKCts0japYc+cax/R4Nu6TiUcjly9SgSNhR36tWRPBjLvdoCZI9qrnxjvPcpFk3UkRImRxk8mazfxhHTdvA8mMb4MDXy2Ex0+1OI6BvKqBdyLZk6suKGolYriZiXi+69ycj7qhn6TDZ6oPj1aEKDlcij0igoTmO8Uk3oyBRyW4C9qYwPU6NUTifrTA4JIUrUYdGkHTZvWfaHJwj+eDLqQDkjXzPw1DvzO0/4Nmgp2LWLgs4xCODNPQOayEhM4ZH/W09BvxjmPmg+Od8dfT+K/at55PEUYlcUEBgR1B4oVOS8y8wnU5jzcQ26j1fzyJOvsmKfJWj4uYlj2f9kxvT5PPB4Kst/7M/sKZYuiJtv40/PTUJ9fDN/njqfB6YuZs66o+aTfDs92v257Cru3G93x/gHmcge4qel8FjyF/QaGUaP5okPeJDnp0jZOj+FR55cTbb0Dga2DS1IgpkWexvH3nyJB6ansvT7/kz4XVvQLGXUrOlMaPyCP09P4ZE526keGUvSaKvenl7BTJuhouTNVB6YmkLs6mJzgOQ/jAVzQqh5fxWPTZ7PA0++xYovTtGjmVpu/QmT7uHpuBQeeeEAt8bG8qe+ADXsWPEqsXEpzFyn5eyeLB6Z/hIz3yzkLE7Kx1GdWChGRNL3YC551mdBh+1ZQuTCbSxSZDMrTI5cLidkUiq7dJYN9J/NmowH0S4didzLC+XI6aw8aKnTQfNYnxpETpwaeaCayR+pWJw5nzBXJ9/pqWF5Riy6FyKQK9VM3x1J7NjuhxF7rLWO/TvjCXl+IPLkMfy1fDjp48dYMus4nDeXcUsH4pU8jEc+reLBKa8yW95pC1ePWziLZyYg2zcd9byBhGTlc+/kN5kdYM6WyGOIla5jfMpAlKuyUWhWkHhb503YIxu8hA9GQcbqYeY7BZc9Q9pJyzCfyyDmz1xAkHYBIcn98XpxIvHfdH7mUlDkXGbfvJaRCwYiT5lORg9Gva8G1aglzHffSPxnRzG4qEl8YgmRPy4w7+e8YYzfuoMi6zv6ZBpibz1K0W0aNN30pl0cHXl7S4kcHmabIThwU11dnck20dott9g+rOLqqampwc/P+dXsdedsDvGRmUTl2nlWh9CNKj74+1v8+MfFzL3bNu8GVvs1c54+wcT1Nne2XQ8av+W5/zvK2LVPMPaq99trydCMo+Avhax5+Kp/+eXTkkdKRDLSf+0x3zl7HdC+OoroymUcWRFpm0XObCUZ4QfY9uQVv9TroN9IdOo+4pa8Scx1MC/p+iqfKjIzppA36hPWDLzAiKklh/i+GUQWbCPO9jx0Io3xMUUk5q1B42gCpNCuurpa9DBdfuYu/f33WvX0CML16PvtzJyewiNT7Xxmb6Wg/XlQnda6SlTELYyl+I00Cq7xEPOlkYCkiJUaJepHuj7p+6rSZhCtVjLytaJu75SVuErIWxSBUj2965OsL6tmzNO9mtEe+ZIC2e2orvUFw3VVPmaGk+vIqBlD3J0XFizlzg1FqY4nG4mdOUp6cpZlIXt2vgiWLpDoYbqcDqYyKvZtKhQxLM9KNz+3Segh0cN01XuYfm7hbH2T/blgN0vxu/mQuYfpn08w9jLenSMINH9JQuozZDWCRDacpyavYJ768s7R+UVr3UfSkgSyWvsTN2UNi4NF2Vxr1dXVImASBEEQBEFwRAzJCYIgCIIg9IAImARBEARBEJwQAZMgCIIgCIITImASBEEQBEFwQgRMgiAIgiAIToiASRAEQRAEwQkRMAmCIAiCIDghAiZBEARBEAQnRMAkCIIgCILghAiYBEEQBEEQnBABkyAIgiAIghMiYBIEQRAEQXBCBEyCIAiCIAhOiIBJEARBEATBCREwCYIgCIIgOCECJkEQBEEQBCdEwCQIgiAIguCECJgEQRAEQRCcEAGTIAiCIAiCEyJgEgRBEARBcEIETFdNJZs3PM/KE0bbjEvTcoRlb6azo842o6fq2b11IbO+KLHNMGsoInPTEqa+kcTkVa+xocJ2gQvQ9A0vvPk2O5tsM66gE+8xddNeam3TbRTvWcbUzXuptM24FoxFvPWPhaz84WoW1IVqYvf2JcStXsjUN+cwefsR2wV+hcrZsH4Ja8ps04Ur4tQ2nl799iUc+wThwoiAyYHiXa+x7Hsj6Hbw3I4jnLddwK4mig+8x3NrkpiYlkTcu+ms+aHedqHriBTlb8MZq7zVNgOAkwXb2Ok2jpV/Wc4HsxKYFGC7hD1Gdm9bwpofbdOvXwHKuxl7pwpf24yLdgllcHMA4UHhhPtJbXOuI1Lue3gBmbMWsfJeFW622b84l1Bfl6Se3VuXsez7y3eMqM1/mzl7y22Tbzzeau4bEErQLbYZjuvyipSPsYQ169PZXHWZL4iF64qrbYLQpp6Tp90YEOZG7UktbgEj6GW7iB3lB97hpUJvpmqe4wV/KWdrtdRKvYHrtbfAjX4h0fSzTbaobTxHwG9UBLgCuPWoDGhtoLbB2MMA8/rg23cccbaJl+JSysDFj8gR0bapwpV0KfXV7sLDxvM/5vB+w928cJe3bdZFq2xo+HUc2b2CmTTaNhGndXlFysdNzaSwXczZ8w1j/zDiMl54CdeTy91sbggn96ez8mg1VY0teGxZwkeN9Zx3T+fpM9GsfCC0+6ChtYQdBfVEjpvNBKX54OmhCKajU8YV45ldLPt6L/m1LfjfMY45D42mnxuAkZMFm1hzoIiTzeCvHM3TmnEEuVtW1R8hc2cOO09V0ujiRdDvprF4lLrLvtSeeI/ndrXwx0kzuc/HJtNG8d500gorqTU04TFoNpnj1JYcI/lfpLPmvzXUNjZxnteY/A3gM4LF06MJctAveXJ/Osvyy6lsboF/J7HHBdx+E81bkzoOIpXfv8ec/CLKm6UMCJvCcyPUeAC0VLJ79ybeLy6n1sWbAQMfY86o4B4cfIxUfr+Nt/Yf4mQTePa+mz+Oi+Y+P8sJrLWSndtfY8ePlZyXqpk4bhqTlObem8bv3yN5bxG1TU00+keTGTu64/uc7E9t6Q7WfPUN+dUNcMttjI36M/F3eveoDOyrZMeH77C5sp7aZoicsJTkIKuTcEs5Oz7ZxObSShpxw1cxmsSYcQQ5+ys+8R5xR/x4VKJlf3UDtU2uhIyI4+m7/ABo/PFz3tq9lyN1LfSSBTP1gSmM9W9ix+bXODlkEU/3tdpW0ze8tF7LhD9PIbzbdlDDjk1vczIimafNjRv0u3huUzmPPjGNSGdxRXdtvfkIb23YQl5DA6h/T9xN37BBWwOB0ayceA++juqrqYTNn25jR5m57PyVo3n6gXEESZ23WfvlY/4RtSe3sXLXNxxvBH/l3fQDPK1+imNG8gu/xzfor/SxTnZYXw7aeukWnv7sEFXnmjhPOpPzAde7SJw1k0hnbaS1nvyvN5F5TEttixRlv9HEjx1BPzco3rWENNM0VkepLMtqWfPue7hpFhB3m4PycVBff/ffS0bLFN4aZf3La9i64R1q70/mPm06ywrKqTUE8Oi4UIq/3cvJ5lsYG51MnCyflZu2kd/YQGOLivgnE5jgZd6Cw7p0Vj4O2k9x7hI23DQC5ZkjFJ+tp9alD5MenMoESzsA8A26h6C9u9itH8FEWXuycCOpq6szOfoYjcZr9qmsrOySdtU+FTtMz27ea9I3l5veX/uOaedZO8vYfip3mJ55PdO0p8lOnrHc9P7aRFPMuxtNh/RGk7H+e9OqdxJNz31bbTIajSb9sUzTtFVvm3JOnTMZm6tNe7YtND2x/XtTo9FoMjaXm95/N8n0zCf5pvKz50yN9eWm4xX15u025ZuWvP6a6aMzRlPjqc9Nz616zfT+T+fsfH/3n+O5S0xP7Pi+S7rRaDTt3zbf9MxX5V3SHX9KTWv/Od+UdsImvX6v6bnliaZZ2/abypuMpsayHaZnVy4xvV9hNBmN50yFny00TX5vh6mw3mgy1n9vWvPufNOS7yy/09Gn7CPTM2+9Ydpcds5kNJ4zle5/wzTtnS2m481Gk7Eo0zR5+XzTkoJKk9F4zlR+6B3TtFXvmQ7Z1tGxd0yT139uqmpPc7I/Z3JNz72+0LSsoNSkbzpn0p8uMR2vsd5mN2XQo0+16aP3Ek1LCjvXY2PhO6bJa3eYSpuMJqPxnKm8stLcPpx9ijJNk5cvNK06Yd73xh/eMz3x1numQ81Gk/HMXlNK+kJTWmGlqdF4zlR+6G3TtH9+ZDrebDQd2j7f3D7rj5jWbsk0fXTKaDKWbTHNWrvDVG61/fKvXzNNzs7v9J1Vh942Tduy36Rv+//+10zTth1xvr+O2nrbpyjTNPnVJNNzX5WaGo1GU2OTud4d1pex0nSosMRUdc5oMp4rN320ab7pmd3W7bqb+nJQPsaz+aZl6fNNSw5Z8g6+bZq8fL5p1UmbbXT3aS4xrcpYYlpbZpPuqL4ctXXL+od2zDfNyi3t+n0OPuX73zBNW7vFXHZNlaad2QtNT2y31NdPW0yzVm8xFbZ9h/X/HZVP2/bt1Ffjd++YJm/JNzUaK007P3vHtOq7SpOx+YgpbdXbppz6tnUtx8x3Mk17aowmY/M5U6P1dpv2m5asfM30Uae/O6Op27q0fOyXj+P2U/jZQtNDb71j2qk3L3s8d4lp8uaO9m3+VJty3k8ypRT04JglPr+4j06nM3V7jfhrd/5MJef9bsPj50rK8MPSYeRYcxPn3aR4dleqrTBg0DhCPACpmlF3eFNVVwMYOfh9Eb6h0eYrMxdvIsPvxq3sCCdbAf0R8urVPDoqlAB3N3pJA+jX23p+iys0F7Fmx158R89kUmBPdvYacbmV+yLCCXCFXopQwmX1lNUDrVp2/gD3jTBf9SNVM/GuWzlysqTbrvU2J08UUquKYoLCDXCjT9g4Is8fYXfbDG6fcCbd5Qe4ETBwOJGUcNDZ7G4n+9OoPcLx3qOJG9QHD1c3PGQq+lmucq+UXj5++J4tYfdPNZzHjQA/vy49jN3yCmWUpVetl0JFn/P1VBqh9sQ3FMrHERfkRy/cCBg4mnBDEfk14O93K7X6GhrL8tlzqoSdJyo5r6+h0SfASU8Z+N55DyG6Q+Q1AtSTd7Ke8AH9ne+v07Zu0SuYiUP60Avo5ermtL7Aj5AgFb5ugFsA96kDqNXXWG/RLkflw/+KKHQL5dGBbXkjiOwyn8YBYyWVTX70sTd9sJv6ctrWL0o9+SdO0S/MUnauftw39G7cTuZT2AIE3E24SxF5lu84WVIE/UIJcnFSPtZs6quXrx++DZVUNXzPzh9KyDv2PbWN1VS6+tGnrVcdoBX6DZxApBfg4kav7o6tl8pp+wEP5T1EegC40U9xGzTWcLZjC4A3ATIptfrqTqnCjcNZR+2vT0sRa97bQn5jPbWuWmYVN1Hb7MrxtSXce/+zxN1hu4IVdym9jPWcbcX+dHoXN3y9Og7+vW4CTAAN1DY1UX4gnakF7dkYCaaxFWisp9Hdi4CbO/I6aW0gL3cLJ5vcGOth5+RyPXHxwtej7T9uuLkArUb4uZ5aQw2FW59nd1vZtRohsAkjODzRNjadw9fDq2MZF298pU2UtU0bk3rj27ZNF298JU2UNbct3A0n+1Pb1ISbh7fTwOGyCozmpQm72LD3DWbt7cuEEdFM6mceVnPK3SqQdwEwQivmIddT24jP2NaxbIuUsc0Q4OtH46lKiltO0W9gKJX/K+E41fj6BTisDwDcgxl3xzY+KK5hbFAJ+XVqJt7eg0DeWVtv4xlgmVdn4aS+ejWXs3NPDjtO1ZhPgOerOd9pHMw+R+VzvrmJRqnKqm154St1o7FjScfOGznv4mY+Dtjqpr6ctvWL0VpPbbMrAdbHDi9vfFtOUfsz4NqH+/rByuPlxAVCnhbCx6kAx+XTiW19yQIIaNRSVtZE7e3DCa/UcuS0lCqvAAKsj50ubvj7XOErEXDafgA8pVKrcjcfk9ry2ni4uXG+pcUmVbhRiIDJlmsw8TOTyduezskhzzKpZi3P1Yxl5YgeHF29+9DP9RsKTxmJvKMHJ4d2XvhKpQwYkcxLYXYmf0qleDRXmQ9e9gIx6uHOBFa65/Dc5zlETo3GeurL1Wf58tbOqQ7d7I2v5DYmPfYsk3rbZjrm63ELtXUNnMcSWLXUU9kkxVcKNAJN9dS2Yj6xtdZTa7DkOeJkf85LpRib6qmFboKmiyiDHvBVjubp2OHUlm7jpR0b8Zj2FBOczFUDumk34OshxaOvhsxoO3Pzzvjh26Qlr9GLkIfuwnfrN+TpmwhQ9SRIcyMkNJTVu/Ip7qWl8o7RDOjJ0cZpW7ewzXNSXyfz1rK5JZpXpoXi6wqNhW/zdKfb/+3Xl8Py+VGKh7HefFHjAtBEo8H2FOpALzd6tRo5b7LNoOvvs3DY1q1dSLtz8cbXvYWTDU2AZUMN9dS6SvG1BK797gyBTw5RXOVKfmswT1smZjosH2u2v8fdjwDXI+T/WIPyjt8TYsyg8L9+4B3a9e/Jdl2n7NdlJ7Z5TtpPTzUaz9Hrer9oFS7aBTfFX4cayhtupY8vlNdUE+DXo3vpwTWYCQOl7M7dxM6yGmob6yk/VcJJp5ecbgy5K5iq73LYXWM54DZVUnjK0q/tdxchHiV8lFdEbQtgrOdkleVKGYAAIvsFEHDX75npl89be5wPY11ZUgKkTZwsKzfvR0sPTiIuKsb2b2Ln13s5ablabtRrKW4rDwf69L8b359y2aEzAkbKv/uc/F6hRMotC9Tls7XYPPRZ+f0+8lyCGdKW1x0n++N7x130q9rHhmJzPZxvrOSk3npfL6IMnGisKqG4zgi44esbgAct9k+2F8C3/930q/icDSct7amlnvIfy83PrfIJIKCphMJWFUHeKgb4VZKvc8Pft4fReOA93NdyhLVHawgNUjk+obZx2ta74aS+apuMeHj44eEKNJSw9YjWZpv268th+SiCCWk+wtYT9bS3Lad/61bc/AiQ1lDu7CFhVpy2dcDXy5vaihOUtwCtRs7bBgddeBMedBsnv/uc4iagpYbd3x7CqAonpC3I9Q8l0qWIj/YXcb7f3fSznDkclo8jLgH08aqksELKgNu8CQ2UUlhWia+fvfHJC2W/LtvYLR8n7adn6inTtxAg68kFhfBL1JNrvl+flhoqW/0IcTNSVgN9+vfwBAH0G/Zn5rCJzB2v8NY58PBRMzVaTb/2YSj7PO6cQnLTv1nz7xdZ1WjETRpAUNgUQm7zAxcVUx+OZs3nW3j6zRqMvbzoc9fjvORvO4fFm/vuj2b/hk2s7fcs8X0dXenUs3N7BptP1VN7ronzvMPUk974qqJZ9kCo+a61i+bNqBHjyPs0g2nfGXHzGsEL06MJsl2sEzeC7vszf/xqCyvXbqOqxQ0Pr9sYGxVHUNvdbt3xH03yffW8tf1FNjeBZ+9QZkZr2u8e8+x7D/1OvENcbrX5LjnNhI4TQbec7I9sNInj6nlr72tMyzHidsutRI6czdOytn3tpgwcXaIYj7Amaxt5DfXUNreA7nmm7rmV0Hv+TPLv/Dhfc4g1e9ZS3myEXrcSHj6FcZd6N47PCJ6b0MTqPW8Q958mjK7e9Os7jqfv6IPvzQH4U8OR3n3p5yLFI1BK5X9dUcoAati57R02V1jaj+k9JmdI8Vc9xjJNW/sJYFSQG5u/UzHzNid12MZRW6/4nBc+3svJxgYaf4Y5Gd/QJ3gKK0ercVZfIeHjCNiRwbTvwNcvlEnqu/A8Y/3F3dSXo/JxDyVufDkrv1jG5M9d6dM3irHK8p4PybmoCFHU81FZDfj38CTrpK0D9AmZwISyLSRn7ADXPkyalMBEJ70mAb+bxtMNm3hr/fPUtrgS0DeK5DHBVkNQfYjsB3MOtDBpqlVvu6PycVhf3gR4NlHZEEqoF/j2UcHeb/D39QKa2J2TzlptNbVNLfDxixR6qZn6+5mMlQFlO3ju828oa2yg0Qh5a59ns8dtTJjwFJMU0G1dWv727JeP4/bTI80lFJ4JIKSnbV34xbmprq7O4TXqLbdcyCzGy6umpgY/vx4eSAThEpwvXkvcdyremjK665CAcNHK97/GK4bHeGu0yjZLAM6XbuKZr/14Yeq4zo8WEH5xagvfYU5JKCt/f484htyAqqurxZCc8CtmbKKxBWitJ/9kKb1kAZfYsyZ00nSED47CfaEq2xzBoldfDZM8DrGhuN42S/glMZawuaCJCSNEsHQjEz1Mwq9X2Tae3raXqhY3fBV3M3PCY+bbl4VL1MTu7a+wpsyNfmHTeOHeHs5fEgRBuE5VV1eLgEkQBEEQBMERMSQnCIIgCILQAyJgEgRBEARBcEIETIIgCIIgCE6IgMmRsrPc/4qeDfaewtbawpZ/1zJk8RmUi8/wx7xf/uPwc+eqGbWs2DZZEOwoI23lMBKO26bbqM9m+oIokpwt92t3+Bnkqzait00XBOG6IQImR7zdeCzMnVB795qfPEfqyZt5JfFWylJu5d0Ip09C/EXKmS3HSy5H2XcyWZ0e9Af8tIKhS1dQ4PRJwldDM9nvRnU5gev2zMDrb1EknbQktO4jIWUKGbYvB70Suimf3LmhKJVyvHyjybQt02ulm301VGwkfuUw5HP6I186g5RjVZ0XcEY6CM3QGKKcPVn9Auj2zGDUxyW2yQDoitKZ/qplf1/UEJ2Tj8F2ocvM0f5cdjXrGD9HidvflLjN6Y9y8RQS9pX0/DeeSmfUqnXobNMtdLumoNzwpW2yIAiIgMkxH3eeekBKiJ17og1nW6m71Y0Ir5uAm5DcmPESICEqtZCy0g+ItX1asNQfmYfVi22vpdYqtPW2b/w0U8jhk71f9vykcrl0Uz5RK45QVrqeWM/O6deUvX1tPcrLa1egDV5B4dJ8DjzUn0+y5pJ5IcGmm5rY6AQ0l/Fm19Ia+0GbQZtO9IYcZPetoXBpPiV/WULiwP5IbBe8zLrbnyvmlsfZtqIM46vH+GrSEA5vn0tGpe1C9hn0ZVT8bJvaQSb1IVDak5cTCsKvz/Vwqrv+NDTxt5XVDFp8Gv8UPRvqOrIqD9Vz/6vVDNlmpK70LINePINycS1vn+5Yxj4tmX8KRR3ohVdYEpn/bzpD1UqUwQnkGAAMFPwjnvHBSuSBSob+KY086/55bTYpk4ailHvhFahm/NLc9gBA+2ES0WHm9UIfSSL7hCVHn01ChBqlrxfKP2eS9cwo1H2VKGOzzF3/2mySNGrkcjnqkfHk6By9SsUOT29kUh9s386hL1ltvspPHoj61blknjIHMoZjc1GvXI22fclmctaHM+pTy1tQjSVkfTiF0AUDkS+IInrbvvYr4bx/a4jeuo6kjCmMSo1CvewZMivM2y34dArqlAdJ0ZaRubo/XnP7I1+1sX1dqSqG0ac2kmVnvEN7YAHjl4YjnzsQ+YtTSDhg2ZeKdEa9Hs/0V4ehXDqXlA+nELpgGNG72noSminYM5fxL4YjTw5n6D9Wk2f7xvhuyue6ZG9ff8pmq3Eiix4YjkLqg2pwAomqo2QdaQsQ3NEff4nopeHIk4cxflMO2rYeqtajpL4ehXrBQLzmhJNQ1LZRs+7aCACnc0jJ0KCc2x+v5GGM/3ifua0ff4mhKeGM33OUvC80eM3tj9e8Z8g2AjSTs2sdRK4gPWIQCqkPMnk4UbebT/4Fn84gdMFAvOZMJPVAOtFLh6FcoCHF0vPY/f5UkbN1BkMXDEQ+1ybP4f7gsD1jLCFz/UTUyeZ2l3S8vktgZyhagDplLtm27aqNizuqARPRyKoorQH06xhv/f2tR0ldFkVSCdCYQ/zSYSjXbkR78iXUc/vjldx1qFTi6Y/Cw84LwAHDzgTU6niyz9rmCMKvww3bL3JJvKS8PkcKLQZmv9y5XyLgbm++uBsMh/WEFLhzME5Kz67HVMT96whx+iwm900gbd9ythWuR4UBJKDfnsDk1wzM31zCZ0F6chLHM2vRYL5Ni0LSUkxaXAK7hqzhq1INCoOWojMy8wH2cCrT5xUTu7mEbYOh+P9N5pE/vYzqq8WEyWJIPxBD+ifxyGNTyHp+G4WlYZi/UkdmYjyf9F9P4X80yI6mEa3JgkG2++2AdDjzNHQ+ydZsJH7dVhS/30TZ3f7o8v7OuPdWM3huAmF3TkSzOZ3s07NIlAPGfWSfUBLzgBJoJu8/CSRVTuSDeZuIdMknZdUzJB3IYX2ED2Ag99BB4v6+ieXeUPCxhuicL4l9QkPYA5soeaCE1GUzqJj4NekDOnZHB9QyiLjBX5L8TQlx4zryAGTyMSQ+MRdNoA/6opcYv2E52aFvEgMYKpqJmreVyPXDePncGgrj8xn/76/RjlYjO7KAyV8amD/raz4LqCNn0xRmbRvEt1OGd5z47JXPxWr9H9lvbSHPKngHuOV3j/Ji9G849u93WHfMZh7drWEk/H8j6NOTyyI7+6qvOEFFwETC2tf3Iew2Loxx5gAAIABJREFUJSmVJcDtQBk5J3zYNiefSPJJWRVPwp5BbButBJdBzPtbLvMoIfXVGVR0bNZxG6GEtHUL2KVawVczx6BoLaOo3ttcpgNe4NvFL5C7aRjJnuv49iF1xzZbj5J3ypvRo+w34LAH1nHkgTLSVj7IyzsHsf4vX6PxbjYHYo72x8WHvurHWT1mDWHeBgpy4onemo3mL4+jcLQ/Ttpz8c65JFUNZ1vKVnPZvTUFvafGan2QyAah6d+MqrujtLGO4mPryG4YxOzbAEdD4x4a1jyvYc3hZ5DvGUJhwgwUtssAqGawKPB221QAJH3C0Iw2oLKN7AThV6K7P0XhCjIQyMS/xlkOPBLAQO6mbAL/7wBxgySAAs2sWBbG5lDQEkXkiRyyT0SR+B8NKk/AU0WYZXis+ONsKh5cRtxg81Es6MlENG8kk314MWFDzMsAIIsh8ekw84lHApzNI2d/MHFfaVC4AoNnM3v0y6RZreKcP2E2x1bdkWxyb5tByd1KJIDqnsfRfLqCTyoTCAscQsyAMlILy0gco8Rw4kty/TTMDwBaD5J12EDszFlEegCE89QQJRHHvsYQYT6RyPrHoLFc/IapBsHxn9ABKnNS936G4HseR7J6I3mjx3TKkqnG0Haakg2YwGjpcrSWt1RIZIMY7O2PTuZD2G/DkXmWIWuuora1mYKDOwiM/IS4QHfAH82oGBb+80sKWocT2R5gdC2fi+byGx6Me4L7bU+K7u6AK3dOmM6C+23yXNzx7kmwBNjbV32TAdx9OvV8SNzdMTS39b64EzVyBpFSgHCeGjqIkGMH0Y9WOgwSHbYRly/Jrh5G4jNjULkDKAmzN4ewCwP6Jh8cvm8agGbC7pmFRgbgjgQn+xPoTtDAthbiTtjdYwg+XEZFKygcla3D9hxO7vESooav68i7J5yMY503QeDjpE+3SQM4t5HouRvBxR2FfAxxsUuI84bLMmPcQ919eQfFkf6ObaIg/HqIgOlacFXRV2WdoEd3xkDBayNRrrIktYDBVWM+Buor0MsUKOxc2VWcqSWwT2DHSc01kL69KyiymUwsUfUl0Hr9s3oMLQoU7ZeZEmQKR6e5nqmor8dw8iVCFqxoTzMY/ZndBOBO5OAxlH76JdoxMyg9so++oevNAY+xCl1TGbnvhpPVtuLPBgwqQ/vQo69n55P3hZD4aYgLXEfmsSFIrE50umPpJH2RQ3Ej4GKgot6HOW2Z7u5ILcvKeknABSStAHXo6pspOD4R5VdtC4OBMeh/5soMdLf+j08yu+9h+mHH+kvrYbJDJpVAcx0GzDE2gKG5GYm7u+V/Pig8O/pXFd7e0FyFHse9ao7bSBV6qT+KC37huwRZrzpquxu+aueDqreyU4rj/akj78slpB46iu5noKWOUmLa22S3HLbnOvTNEhSyjrKTefu3/9upWx5n28IVaHpQRk22AbYgCBdNBEzXSOdJ4jIUvWVEvVTItiftnGpkvsj0Reha6FJjgYpAKsorMBBkPqm1VFB6xheF7QRtOk56AHjKkLnq0Z8BPAEM6PUG7PfT91ygtzeyga9SMlNjN7iR9Neg2ZxOTmV/Sk/4EzPOcvJy80fhMYg5s7YyL7DzOhek2xOED5rIYaTu/JKgtgCiMZuETfuIfHIj62/3gdZ8klKXd1rLzB1utv6/DwpvH6IivmTb8J4NyF6yK97D1JUsoD+BlUcpaI2x9JrVUXCqjOA71UAzUIfubB1YBqV19fXmyeMdm7DLYRup8EF2vgSdEWiLy2yY17GZ4O/Sn7DfVJFxvAT6WQ+NOedofwzHljD9kD9r4nOI8gYqVzPqH51flGt3fxy25ypkUgMFZ5tp+5H6s5fp5bvW7ePnOvRNzV1+kyAIF+cSDqfC5SMhaoqGotUpZBe3TdjWkrdfa/53/wcZrcglY1kuOgNwVkfxUR0GIOghDYGfpJF52AAYKP5HGjmyicQMNq/aLc9Iou4tInN1LnrAUJxJ5s5L79NXhMYQpl3Ly8fKzFfhxjqKS452THZ1G0LMgCqyP97IJ14TiGm7e8plCLGhdWTlbKSg0ZxkqMknr9L+nW9d+aPwruNwyVHL93ZdT6J+nJimL8lp64VorkePv+VKv5nib9aSre+6XlfuRN09hqI9K8hu27+mMvK0lgnjV4jUywNvH5uPJfJ2k9jJ87rE6yFlDBPdtpL6RT665ma0R9LJ0IYTE9rWG9JM7r51FDQBTflkHjxKZPBwpwGTwzYSMIbRHl+T8ek+c9DUXEXxqapOPTq+Mn9K/5uP1gi0NmNoBfAhZuTj6PfMJenQUXT1degq8smrsOmSs8Ph/pyrwyD1Nw/1GcvI3rWVApu7zOzuj8P27E/UADV5+9ZS0Iyl7CwT262d2kj8+nVdHvXQLakSldtRcn+oA5rRHtxIju0EbW9/AqsOkmv5Uze0TRDviaOZxP85g4Jf/iPnBOGiiIDJHu1Zfr+ymkEvN7DlvJHn3jjDkJV63j7l8D3FjrXkkhQZijI4nhx9DvHBakIfSWs/+MgeTueDv0DGJPNda8rI6aQdtDwx0zWM+f9aTtD+vxIS6IVX8EjiN1huOxo0j/WpQeTEqZEHqpn8kYrFmfMJcwUOpjE+TI08NhPd/hQi+oYy6oVc83ooiEtLZ/TheNSBSoY+U0rU45GWvEvg9zjrp45B9+kUlHMHIl80kYS8EqvpFe5EDh5O6ZEcFKEaqw4tdyIfWc8iWQ6zUgciTx5IyOp0dum7nEa64UOsJgHFsRkokweiXJlOnu2JxkVN3NBBGNpiIr+JJN5dRcrSgchTJpKiH05MYDfdGjZkg5fwwSjIWD0M+dyBKJc9Q9pJ5yfnXxS3QcyfPhdF4TOo5w0k4j8nGB27hLi2iMglnLjQOpJXhCN/8Rlyb1tC+ogeDC05aiMug5g/cwFB2gWEJPfH68WJxH/T+RlHQZFzmX3zWkYuGIg8ZXr7LfWSAUlsmxROcc4M1C+GE7JqgeVOyjqyN2hQL3iQlJ+qyPxXOOqlz5DZdmerg/2RDJrFHJe1RCwYiHL5AvJu1xBlMxRmf38ct+egMStYLM9hcoq5rTaFxBBsczQ21B8l9+RRc+DYE+5jmKMZxP6sYcgXRDFdO4Qn1Dbtud8sFoVUkbJsIPJ5w4g/1PNHIhh0BeTuLTBftAnCr9BNdXV1DqOAW265xTbpqqmpqcHP7zI+wEW4YDmzlWSEH2Dbk5c4Vid01pJDfN8MIgu2EWdn+PTGYf/uRUEQhF+S6upq0cMkOCZxlZC3KAKlenrXJ30LFyV3bihKdTzZSG7Y+SX6RnM3nuGnHHL1SoIv45O+BUEQrgXRwyQIwmVWRda7E0koqgJ3NZqxK1gzetANGxwKgnDjq66uFgGTIAiCIAiCI2JIzo6amgt5UZYgCIIgCL8GImASBEEQBEFwQgRMgiAIgiAIToiA6XqjyyFJE4rc1wu5chSpB63y9qcwVB1NZrlV2uFUxgerUauVeHmNIq3YKu9a+CQeZVQaWtv0q6G1jKysiaiT++OVHE70niv7IMmrS0talJqEXbbpl6glm+mB48mwblNCD+nJfETO9A/Fg4kE4ddABEzXmYJ/LiRLlsiB0w2cLvmMROsndquiiJ0Ww2DrRykPnsdnRSWUFK0n7qo+KslAdlzo5T+BX4qS1aSUqEl//gQNy77mg0ird4b9tIKhS1f0/KnJgK5oNfGvRyGf0x+vBRqm77I8RfyC1JH1j2FMP2TvoZbd5+n3pjE5Qs2oZdc6AnbiaCqjHsnoeJL7dUtLmkZNaEwquQ4fj3F91EneoqGoI6eTcbCbFte6j4SUKaS1PXxTEIQrTgRM1xm9rpa+4VGoXAGJpPM75xRRJC6MI8zTKu1aadGhLXf6ptOrylBfhV4eTqQ3gDsS6ycyS/2ReXjjewEtXl/fTPCYNRSmHqPkCQ26Txe0P1W6x/Q5ZJUPJ3agnXfOdZunJXPRSpj1OXuSg2zyri+G8lIqbBOvSyoS//MVi2TvsvCfDgKe66ROIhd+y+cz9Ly8KKubYNQHmYcPsmt3E7Mg/OpcwOlDuHIM5MwdRWiwkslrteQtCsHL1wt5RAp5LYAui/gwNUq5F25e0WTaP4LaV55DyqShKAPlKIPHk/Sh1pKhJW3cUOKXJhAdNYqhIaGMT8xG2/aeKH0eabGjUAfK8ZIrGRqbRp7l/SYFr45H3TeClL1aMmO8zPsak9lxYHetIGfueEKVcuTB40nafiE7fOF038xl6OJhqD/8En3JApRz++OVPIU06+DG0xuZ1Kfre85O55DwehTK5IHIF0QxfmvHO72C7kkgMVSNwt0dhWoMUbIqSm1et1fwsQZlxsZuTmqgPZyNdsBEouy8caXbvJZaavWBBA1RdU53laLfnUR0mBJ5oLpTfeUmdu75MHw4HfkjmR2vpNFmm9uB3AuvQDXjl+ba7S3Tb48nNGQ62W1DdN21nzPZ5jYZm4l2ZxJqXy+85KEk7bKs58gn8ahjU8mYHc34kUNRh4wiob1d6sh5IZqhfeXIfeWoR8Zb3pMIun9EM2rSdMYHK1HHppA0KRRl31Gk7rf8EkMxWW3tThlK9KLczvXiqiA4KBD9Gcsrh+y44Dqxps1icvBQktreydjt/mjJ0IQS/4lVDWgzGK+O7/TuN9WgIHzP6qxeK2TFxQdfTx8UvWwzBEG4UkTAdF2QoFmxhyNFZXwwU0XkwkIaahs4fWAxka6AIpY1BSWUVawn9kJ6l1qKSftTPLuClnGg7DQlmzUcnhdPhrYtv4ic4kjW5O7h24JtxGqTSPiHJVMWyOApy/iq9DQNZZ8zu+VtklebT8hhf/+MkrKvmD9ERVx2g3lfs+Pa3wtnOJhN3oB0vi0r48CzMrLmrjQHfo60/o/s9DdJeqnz58VtP9ku2YXinhV8m/I1JX8Yg0y9hLIVJ2hYtonEAKuFpMOZpxnTJWDK2/0S+29/lZJlxzi9cBPpw+0/YFF3dCPZzcPR3N45PTBwGBqV0u46UEb2oSoeHDLcTr6jvG60lJKz15d5uWWcLlrPvQcTOurLkZZi0uIS2KVaxFelDZwu/Jxlj4V1+V7D0TQmz9USm7mGmD6W9bprP71jWFNQwunMWGSjl1NS20DD6SMsH915m93Rb8+idMp6PvvqWwrfHMyueSvJbQGQ0Xd4HKvzyjhdW8IHD2tJeaGjl6VAF0x6XjqRuzLQPvQZXz0rIfvTIsBA3qLpJBVrWF14mtOFqxm8M56kD+2GG924iDppczaPlD+lwLMfsHysDMf7oyJ2ahC5m3LagyHdJ9mUjo0hqsd/30piHokn0ua9doIgXDkiYLqRFWeTpdUwLzkKhStIBs1m9r1F5OxqO0xLiHo0xhzouKqIeTSYvC/yLAdxFVETI1FIAEkQMQ+FUaEttaznmEQRw+yZQUiQoPqDhrAzWrS2b0235fIbHox7ggUJnT9zxv/GdsmL5E/Y7V1fDBvop6RWu4Ocijpw8ydI3nkoJvfDKJTJ/VF/UMKDkxagkXbKRnH3C6zRDO8SiAFwKpvs5gnE/tY2A4d5hhP7OaxX0LfLnDQJUf83m0gZIIvkqRlhVvXlwIkcsk9EkbhQg8oTJL1VhAVZ77EEiT6HpLhMVKnrmTfEEi44bT8XT9J/IjEjzPsgGRxJkF6H7iyAhKAHYwhTSAAZYY9pCNaVUmEJuBWD7iXIU4FCEUzYvQoUvRXUntFDSx5ZHxqIfT6xo3ym9iX34849aYo7VDQd3U+xvfZ4UXUCoCNr9ix2jVjDmidV5iQn+yObGEvk/ixyzpjXz/lUh+axqM6BWp++KHQF5J2w1xcIqtvV9tudIAhXhPUMGeFGo6ug4kw28SE5HWkGA8HhHQGTxLPjEC2TyUBvHgKQnS0gc1EqmXu15hOOvhTD6Lj2ZR1SBBLY1rJcJUhc7R/wO2n9H59kbiHPZq7tLb97lBejbbp1LiPVmDV8IE1n4bsaUnvHMG9iAjEBHeMxUQ9t4sCYZirKd5C6+XGSpmxl+QDb8Rr7CvJzIDSdMDuXJd3mbY9HGZtL1Ir/2JnEL0Oh6DhFKnp31FdXVmWur0AvU5iDX7t0ZM9LpkAnIc5q+47bzyWeqmW+Vm0EaG8jevLeSiJ102F0LUBLLaUtse2/RmpprxJXCTJPy7oALTp0Z0rJnaQkqz3NgGGEAQO0ByKyPyxm/kfjiFAWsL5iPTFWZXJRdeIqQbsunpTDtfRNDuwoFWf746kh7sGFpH2oI/YPOeRoRzN7hE0FqeJYNiub6LAQCv5TQvroztmCIFxdImC6kfUOJFAVxxsFy81De51oAQM6XcfJT3dGBzIFMqBg2SzSzs7js9wYFBLQr51MyDdWq19ulh6m+23vYnPvWXBy8XwIi3yBbfckkPd5ApPXriY4OYGgtmypPwopKPxmMbtoHcnHS2DAIOsN2GfMJ6vQnZgn1bY5jvMeXkNZXgaTY5LInLjN5gStt6kvfXt9ARishj31OqswSuaLTF9kDkC6tAOgpQIe/ZyvZrzMuMSX0Xy+mEhPnLSfK8PwSRLTNylYk/0tUb2BE2mMiu1+zlE7VwUKRRhzsvcwr73yutJ/mMTL+qc4UJZIkHV8crF10qKnQjGbz3N1JGgSSBv9GYmD6MH+SIiaOpHkeVkUeOahHTubSNuAVptJ8moZiwsKietvkycIwlVney0l3EgGxRDbO5vU1/MsV+sGdIfzKG6/rdpA3qZMCs4C+jze3lBE5P2RyAC9vhZZHxUyCaDLZeWG3LaVLBQoeus5vLvAfPVv6EEvkhNSLw+8fWw+nW4TvNya0Z7MR9sEuPjQV+6NpKWZplaAKvKO7KOgpg6DsRndTxvJPN5MUKDVowoA7YGXmJ7TMVG8jeFENp94xRBjPY+qB3kAkqB7GSzTUaqzzTGQ+88MCvSAPo/MDQVEPhCFDAi8LZDSvTkUG8x5b2/K69in/g8yWpFLxrJcdAbgrI7io7qOfNdgNA8GofrDcpYHZfHXpZZ1nbYfQKEgsDiPXMu+WgdtF0WvxyALpK8MMGjJXpVFgW3h2uMaSexEPVnLMs3lAxi0eeQVd15Z96MO6aB7CbKZK3TxdSIh8gENqv6zSU+W8PYzqRS30LP9GfJHYlqySV6nZfSjNsNxAOWl6BRhRPbvkiMIwjUgAqZfgr2pjA9To1ROJ+tMDgkhStRh0aQdBvamMCpEjVIZTYY2j5SRStQhljzXIBL/lU5k/l8ZqZQjV6oZPy+bovZjtgLNvbUsHKlEHjydXYOXk26ZgxE5az6qrdEoA5WE/imbvg9pbA7oMmKfn49ie7T5Dqqol51P7L4OlR5dTvTSgciTBxKRU0/sxBntQzL6E2uYtXIY8uSBhLy7ESLSWR7ReY5TbcXX5P5UZTMs1kzugS9RhWtQdUp3lueEayRxD9WSbKmv3MHppM80d3cEzVzEbN5mpFKOelwa0ilxBLcPeYUx/1/LCdr/V0ICvfAKHkn8hqKO7bZTEJO6nKCts0jape9B+wHuncOiP+hIiZAjD1QTv7FLRHFBJA8nMkeSQUSgHGVkAnm/iyGqR/GChMiF21ikyGZWmBy5XE7IpFR26XoSbV1CnVhRPZnOfM93iV9WgKFH+xNE7GMS8nSjibnXKrmTHv14QRCugpvq6upMtonWbrnl2j3oo6amBj8/P9vkK+pafOe1oSUtaiRFz5exZqxtnnBtaUkbN5K8KV+x/kmVOGVeLgYtmXHjyBz8n4t4ltKVqZPiV0cxve4Nvn0pzCbHQPHr0YzbHcsBqztQBUG4Nqqrq0UPkyBcf1TEvTQHybpool8tts287hW/Oh6lUmn3o47L7jJ8eXVoSYsZR4brUyybdaHBElyROjmTw8oNEDvVNliCvBfGM/kjFYsXxopgSRCuE6KHyca1+M5rQ/QwCVfIWT36s+a7wWxJJDJkssvVP/NLpScrLoKknVLC/rqaD/4eedl6rARBuDKqq6tFwGTrWnyncGP573//y+nTp/n555/b026++Wbkcjm//a2dh/zcYOz9fjCXgb+/P/369euULgiCcL2rrq7mplOnTjkMmFxdr+RdSoJwY9HpdJhMJvz9/bn55pvb03/++Weqqqq46aabUChu3EGW7n4/dJRBUVERt956K7/73e865QuCIFyvamtrxRwmQbic6urq7AYLbb0rdXU2T+a8wXT3+6GjDM6etfeYbUEQhOubCJgE4TJqbW21GyyAOWBobbV9MueNxdHvB3MZmEwOO7UFQRCuSyJgut5U7eTFySO5s98d3BnysPl5Sm0OvsLYiKm8/z+rtKNpPHZvBBERodxxx8NklFjlXQtfJBL6aAbOX5l7gznwb6a/lk+DbXp3Wn5iS/LDRNx1B3fcGcrUtVYl1riTeSMiSNxh3RtVx8d/G0lERAShd93BnX/baZV3LfxExqOhJH5hmy4IgnBjEgHTdabwX6/wb5/Z7PzhR344uIWnrN/CcfsIHpv0ECHWz04clMiW/Qc4kPc2f+z6btkrqJmPnx7JvH226YK1H/7xGGOf30uzbcY3GbyyT03qrh/58YcDvBtr9b489zsZEfMYI9TWFe3DQ69/xYEDB9g+Z8hVvauqcu1UHn7tB9tk54oyeOyhFznQaJshCILwyyNmdF9n6qrquH3wCG53BVzd6fQmNf8RzE6yTriGWir56X/2bhwX2tV8zOv/kPDEv0d0rkeguaqSur5jifAHcO/8yjzX23no2eesEq6tn/5XSZcf0BPBTzA7eCyL1v6R7X+50zZXEAThF0UETNeFZnYufIxFn/5EZUUldYzkjtfAve9sNnz6HBE1W0ic/Apf/K+KyuYRpB3Y0PPepP/t5JXnX+H9b34C7xB+Pz+NF6NvB34i4/dP8MPwCKr2FFJZXYfPfc+Rtughc7BWd4CMvy/i3X0/UNUiQX3fbFJfnU2EDxSueown/l8hVTV18Kc7eB9wH57KV//6IwEAN1eyc+FjZP678P9v7/7joq7yPY6/pIEZRBlAYTABEQOlFTZTUmvUTLRVjJuZ7vojb1hZuF4L21VsyyxL1C3YWpNbuWI/0DZFyxQr4fqLrrpIueBNZIrkhw8dhBlGRWZgwPvHDL9GZajWBPfz/AvO+Z75njmDj3l7zvl+v+g9Ipj58jqWT7A/pOuHXSxdsopdx/SYlRoiZiSx6bkrA8UVLpWwdf3/sLuokppGBZpBw5n/+N0M7A4c28Fj2Somdtdz+MxFaujNuNkP8HCYqv06AMNJNr93gCxdNfU9/Bk19QGeGO4FVLHj1R3o7+xH9dcl6C9epN5vKPOftJ+zXk/2e5ls+rqS+u7+jPr1lf+UTF9sIifiIZJubSmryl5D9BPHqaiowFSTTWTIUlANI3FXBvH9i9gQ9xipR/VUGCzEvFvCukktbdtnoeDDRJavzabgPASNjidpte3zIjuBqI1qZqoLyNZVYCKUmS+nED9cDejJWrmIVVtyKTWBOjyGhNWrmDlYCV8tJ/qZbegq9JgZT7+3AI8Y1h1dR4wSQImlMJX5azaQ9YOFoPueYeG8kYQ390lJ9LRxvPTcNgqeTCTiyiESQoguQ5bkOgUl0S/t5ODhfDb8LoioxQcpKS6hKDuRKAXgN5WUfbnkf7uOqR6ObdthLSI1fhE5ocvZk19Eblo0BSsS2NC0XaZBR7ZuGMmf7iRrXzpTS5ez9EN7pVpDxJQX2flNESUFW5lr3cBLG23LMhG/zyC3YCfP3BHEzA9KbH1tCkuA+dgujoYmkVVQQNYCNduWpZJrf85c7sbl5A5OJreoiKKjW0maHeE8LAF0VzNw5ARee/2PfJQyh9805PFuVlVzdX1hCfW/mcFrL8fz2m/VHFz/PxTUO6lrrGLHW5nk9bmP19b+kfULBlD+0Wfs1ttftPEsB79V859L43gt6RF+U3+ETf9re2pc+e5M3jvTj8Wr/8j7L47GTXeKtitPFnKPFBB6j5bWC2u9xi0mKyeX3NXjUN+XRH5xCSXfZhDfHyCMuWkHyS04yIv3dGhUmpm+TGTuWgtT03Ipyt9DonoTi9a0LAWaDhyFxzex84uD7FwWRMazq8ixAHgRNHwmKV8UUFScy4YJpaxamYEe4J7lZOXmk/5oEBEL91BSXEJJQVNYAqgg60s9MzfnUnR4HdofVvG37JbPBIA7tAwz5JLbet+dEEJ0QRKYbma6XWSUjuOZp7VoFKAMn8vcoTqyv2raTKxEO2myLegogoiZFEbu/lxstUFoJ0WhUQLKMGImRKAv69hWbpVfDHG/C0OJkqAHookwlFJqTxOawCBMebvI0plAqSEsqO3DbK/Ni4iovngrAWUvRt/ZG2NFq0fe9hnI8H62KQyP8F9x5y0lfN3U3WvVlf8f2ZUDeHjKALxdwC3oLqIHVHL426bL3hUMHP4r/FwAvAgJUlFdWQNUU/BtJQPH3s3AnkDPfsRqA3C1t7LRoytVEtS/KUZeTxZytu1C80giM8OVoNAQ/ehDKPdnkW8PqqpB44gZbEs66uExaBU55BQAKAkbF0OEnxJQExEbTai+lIoOPUhZSdS0eLQ+gI+WmHs0nDljcDgkiKBbS9GVtS0WQoiuRibJb2YVFVQYdrFI2+pSJouZ0DuaApMKpUfLTIZarQZTBSZAXVPApjUpbDpcanvEhakUi3Zm87Ht0mjQNP1lKZQoFS1bnoMe38AGjxRWPRFNSv+pJCxLIKZ/B2ZTLunJzjjAbl019QCXqqkfdFdLvVJBj6b476LCQ2mm4pKzuotcvHSSdYtTWGevph4CBjT1V4FH95Z/Iq63QF0DgIWaSwq81S1brz3UDlN/VjPmGhWtDrmOqtEbLBS8NZnI9fYiK5gV4+zhF/BQoWr+TNSoPUz2EGsid/1y/rK9AL0VsJoobZh61ceaXEmFn19LIFQplNBQ16oeQIVaaaG0Yy8ohBCdlgSmm1kvP/wCZ5LNh/7cAAAUqUlEQVS0b7ltaa+NUsBMRYUJ7ItGeoMe1ONQAwVvJJBak8DWHTFolGDaPJdRea3b/1RqImYsJ31aArlvz+exp9YR+kUCzrYEF+/axtb6+1j5wkC8XaFm/2YWtr6FgukixkZss0GNFzFeVOHRHbjQTp1rD3p4/5r5qyYw8Iq5VvvS0hXlAB54dLdSc8EM9uvVai45XAenUKHyMFPxiwQFLzQ+arTPHSR99jVm7Cr06K3Y9qdZK6ioUqNRgyV7OfO3a0j5IMU2U/RDKpMfb3tzTVucveI6P5tr33LJzozJokbdw7FcCCG6lqt+HYibxKAYpvbaxV/ezrXPHljQH8+lqHnVxELu9k0U1ACmXNK26IgaE4Ua2x2b1X2C8FICFTmkbslpamSnQeNjouCrAttXqeUaX6htWCg9kmub2VCoCQpUo7RYsLRZ/jGRtWY+q75s2khkU33BiofaCw9XwFDCjpxy20xTE+P3ZOddBKxUHM7jsEs/7my6Uv9adQEDGdXzJFt3n8bYCDRaMf5QQrnTmyn1ICKiNwUHvqbYAlw6zec55Q7HaAi61ULRD23fx/WhRPvQOIrSVrFLZ/8cTKXkHm1ZQjX/kM0m+5iWfraJLIUWbThw3oRF7UeQJ2ApZdf6DAocPkq1n4bSvFxKLYDV8fNywqJDV+pHUKBjhRBCdC0SmLqCIylMvTeKyMj5ZFRlsVQbSdS9s0g9DhxZxWRtFJGRs9hQmsuqmEiitPY6RRjxqUkMO7aUyZFhhEVG8fDLu9A1z3r4ET3MxKqYSMJGzidn8IskzbaljKhHEwjKnEXE7ZGMemoXQROiHTZnq5n6bAJ+X8wi4vYwImNTmjd2t6d0/ypmacMICwtjfLKJqS/EOVw9ZaL0aA45urazHIMn3I3m603MmZ9CfOr/4XfHANosggX3w+/rLTy2IIU/fNbAxMfvI6JpU9G16lw0PPz7SYR8n8kfFvyZ3y34K8u3nKS8TRK7uoAJsfxn75O8mvBn5qw4AHcObN70bqNk2IgIdIePtiyLOVOTxfL7RxEVMYqXvjKRsSCMyBHRzN9cCujJWBBNVFQk0Sty0G95jLAhUUQv2WVbQp2wig2Pw4a4KMLCwoi8fz6px1rOrBo+jqAvHyPq9jAmv2Fm7uuJaJWgnBBPvDKN6NvDiLx/KbmDY9A6rJCGzUhkLmlMHhJGWNRMNvzQtr5dR3MpuFWLtqNXdQohRCclD9/9t1VK6n9MpmhRPiljHOu6mGM7mLPLn9f+dBdXfC+3V3cdnDhxgvBw+4X1hgzmT9qFdseG5ttAtKn/pWQnEPlWBDu3zaXV7TGvi7bvz0LWH6JJvS2djKdazvzpp58SHBwsD98VQnQZ8vBdIa4nn6k886iJTW9d5U7fv7gb0IMTG0g9MY7ER653TBNCiOtPpo+E+BdycXGhoaGh+QG0YU9lsNNe19DQgIvLzf1/lDbvPzyejF1t6xsaGujWrVvbQiGE6AJkSU6If6GzZ89y+fJl/Pz8mkMT2IJCRUUF3bp1w9/fv1WLm8u13j+0jMGJEyfo1auXLMkJIboMo9FIN5PJ1G5g6t69u2PRL8ZgMODj4+NYfF3diHOKm8v333/PuXPnaGhoaC675ZZb8PX1ZcCAAa2OvDld7f2DbQz8/PwICQlpUy6EEJ1dVVWVBCZHN+KcQgghhOi8qqqqZNO3EEIIIYQzEpiEEEIIIZyQwCSEEEII4YQEJiGEEEIIJyQwCSGEEEI4IYFJCCGEEMIJCUxCCCGEEE5IYBJCCCGEcEICkxBCCCGEExKYhBBCCCGckMAkhBBCCOGEBCYhhBBCCCckMAkhhBBCOCGBSQghhBDCCQlMQgghhBBOdOrA5OPj41h03d2IcwohhBCic+vUgUkIIYQQojOQwCSEEEII4cS/fWAqz32TuPQ9FDc61lw/NWV7WLHhT0x/YzGzNmSQZ22pu1p/9HnvEvf2i8SlLmb6OxkU/oJ9vZrCva/w5N5TjsVCCCHETavLBKbCfa+z+tt6OJtJYmY+dY4H/ETet97J6LBgND9qJOrZv+MV3ilxLG9Rd3oHi9IzKW4VhmwM7M/ZR83tC/nw6TWkPxLLUEVL7dX6oxn6BGlPvkTaFC1+P6qfP1OjjrXrN3Loivfwc9RyKHM1K/5pcKwQQgghOq1f8uv3ZzhP8TlXBvZ1xXjmFK6aYNwcD/mJPPpqiYsKxcOxoj2NFzBeqG8ntBnIyskjIGosIa3CEACNl9Bb3Anpq7G9B1fXNtU/qT/Xi8WAsdax8OdyZ+SIO6k5kskhi2OdEEII0Tk5fp13OsWH3yT5eBUVNVY8Ml7h05rz1CnfZEFlLMmja1n9wQkCwuo5WWbAaFEwcOhvWTAkADcMZH2yjvTT5zG6D2fBry/wyVEdxm6RLIr7LRFlGSza8zUV5lrqvKNZO2cSAfZzFu59hfRuWgIr8ym8eB6jSwDTfjOLSX6uFB9+k9V55egtVti2mAMu4HprLGunafFu6rQhjyzT7cwKcW8qgcZTpP/9Q7Kqa6mpraVu22KyAI+wONImhlNXfO3+OFNTsoe1+3PIN1lx8wpn1v2/JdrPFWqPsOKa4wN1Z3NYm72PPMN56l08GfirqSy6NxxvDGR+so70MgM19VDw1mJSgICohSTfbeuVa52O9K0fknnmPG5ekcyKmU20/QJDY/EOkvcd4eSFelzdNYwc/QQLBnk29xef4Yz2Xk2WrpaRg1uNkRBCCNFJdfrAFDJiIWtv20NijicvxAaTuXk3fg8/yhglUHuEuppvKfZ4llWPaKAmj9Xp6Wzps4RZ/j5EP/g80bVHWPFOBltOx/LCY48SQL3tXYdMZe2TU6Hk78TtdzgpUHDyFNGzFzLPo57inGRe+N98xjw4lJARC3l7RDnp77+LccxLLOjn2BJqynTo/YYT0Xp0XYKZNeN5ZjWWk/b+RurHP8+8vi3Vbk76c02mIyRnHsF77NOkDeqJsWAjiZ/vIWT2JEKgnfEBNw8NI++ez4J+PrhdyCN5y0dsGfAS8wJ9mPTg80y6kMMLG79jUvyjjHT4S6ko1uH24LOka+o59PmbrM3JZ3RsJG7oyczJw1v7PB+HuUOtHj2twhIAnkQG+rCl7BQMDneoE0IIITqfLrEkV1epp86nLx4NesrwIbD1KpYigJGDNLafPSIZfet58krb7o+pw5MRUVoCFICi7RLYtXgEDmekB4ArIf59ocbARceDrqHMaMDby77kdp0ZvztCge944gb54IYrml/dy1DzCfKahqC98ekZysj+Pri5AOpIxtxqRW/q2Bqca18t/9HHHVw8GRkWDBf0GAFwJ8ATir/Lp7gWcNegucokkp9XL+rOV9nbCCGEEJ1b555hsp7gnQ8zyKs5j1FxiicLazFaFJzcqGPEuGeJ8wNwx605mbjSQ6mg7tJ5oNUNKF18CPRq+bUjeri7twQeF3AD6lvVt6e+vh63nh0LZj+XsaaWutM7mJe6o6XQ6k60BWwboa49PnWGPNIPfEVetS0k1dfUExDYdGz7evT0vMb4eDImZj4c2kHy+3vwDhlP3OjhhCibDrZxc1PgZq1tZx+YEEII0Xl07sCkCGfeo0s4tPNNioc9yzTDRhIN0SRr7bt7aoHG8xhrACVAPYZaK25qxyWgfzV7GLrG5f2uClfq6joar34ebw93PPpPJC028soZrXbHx0DmFzsov30+yb/W4EY9hzKXk9W6vYutzY8ONa4axox+gjHDy8nc/S4rDviQNj60zSF1dVbq3FqFUiGEEKIT6wJLcgbKL/QiwBvKDVVofOzLS00aT7P/nzpqgLqKr8g67cnQ4Ov9eBN3NO61FJeV28KEtW040nj5YDTof3zQ+Am8b7uTkDN7SC822PtynvKS8palrmuNT+MljBZXvD1tM0U1Z74is8Qh5Ck98XbRU1BqX6br0O0FDBT+oKemEVD2IrCnK3XWKxtWGKpw89S0bJQXQgghOrHOPcMEYDWgb/QhwrWeMgME3NZ2qctNcRtDlftY8vZGKho9GTFiFtP8gEYdaR/+nQMmA8Z6OLn+Rbb4aVkybTwhLlCeu45V35zGWFtLTQMseusI3p5DWTArtmn+qB2ejNaO59AXqcz+Zz2uPbW8MCeWQfb46R0YjCb3O05ah7bd+N2O9vrjfXQdK46d5qK9bllqPt49h7JgdiwRai2Jk2p5+8AbxH1WS73Ck5D+41nQLwBv2hkfAph0Vyirv3yR6VZ3AvqNZXSwJwWtO6UIZ7o2n+Q9rzC9DrzDZvPX+51s0m68ROHRjazeeZ4aXPHuHcm8iY5tzpNfZmBQREevAxRCCCFurG4mk+myY2Fr3bt3dyzqPGqP8ML6fKKfeoIxzlPOL8jAJ5vfoHhoIovCrrLj+ZfSWcfHsIfErXqmxc1maGfqlxBCCHEVVVVVXWFJrgOusZfoxvFh0uihlOfuvcqdvm+ATjU+tRw6/DUewydJWBJCCNFldHDBSPxYbn1jSZ7lWCrAnZGTljDSsVgIIYToxLr2kpwQQgghxHV28yzJCSGEEEJcRxKYhBBCCCGckMAkhBBCCOGEBCYhhBBCCCckMAkhhBBCOCGBSQghhBDCCQlMQgghhBBOSGASQgghhHBCApMQQgghhBMSmIQQQgghnJDAJIQQQgjhhAQmIYQQQggnJDAJIYQQQjghgUkIIYQQwgkJTEIIIYQQTkhgEkIIIYRwQgKTEEIIIYQTEpiEEEIIIZyQwCSEEEII4YQEJiGEEEIIJyQw3QDVOUlMHxJIT++e+A5ZzF5zS13h2gmEjk2i0NpSduq/pxMaGkpooC89IxZzqFXdjXBoaSSRSw85FgshhBA3rZs/MJ2pIeZvl9A7lt8wZ9n8ajLVs/ZwzniBcwdfZqyqpdZ/2BRmTB2Bv6KlLPipj9HpdOg+iye8pfj6s+5lYcQctt/ggCaEEELcaK2+lm9OZlMD+sZO9DatZzhT2Yc7tINQAfRolZYArxHxvDyiTdGNc/EsZysdC4UQQoh/P51/hum7i4xbU0noskri9ptJeruKwSsreWi/fdrDaCHpPQODX65k8Bojy/Pt5ZfMPJNcScRHFkpLahi2vJLAl6tY/t1l4DI526qIya5vPo0530To32oxcZmCvdVoV1YSuMxIyrEaZiZXMnilgaRTl+Hb8wz7oIYNW6t56C0Dw14zkpjf0Pw612Q9RNL4SEJDJ5By/ASpE3vS09uXwPjdAJizFnNXaCC+3q70HJlEoUPz9lTnpDBnVCi+fXwJHTWPtOP2Nb7qzUwPn8OyF6YzYdRdREaMZt76QppWAM3HUpkzPpJA3574BkYS+8JuzgJwirQZkQSGz2N75Wbm+Nr6Onp1S69UFw+TNO0uAn19CRw1j83fNVdx9vNlxA4JxNfXl8Dw0SzcantVIYQQoqvq/IHpth5kL+7FprtcyDlYC+O8Of5cLzbdo4DGetZ9dIEcXw+yn+/N0UfcyM+8yIYqoLuKvyzqje5hN9T9PDi6vDdly3qx/LZujmdw0I2IsV7kPOfF0j4NrNvfwNzHenE80ZuEIFtbk85C6R2ebPu9DzkP3kJOZg05jQ4v40gxkqV78tHpviRhcDjxuy9wwXiOstSJAKii1/APXRnntse3WY5zqjyNeY9sxuvZPZSdKWPPY2ZWPpHCN/bcaD67m8OaNXx58B/k70nA/PocUo7Z6lT+dzDlTzvQnbnAuUMv4f/JQpJzAIKJ25xP2TdvMrH3DN4/Z+vrgSWDms7KiU/2wpIvKTtTwJuDD7P41e32IFZI2qub8V9RwLlz5yg7+A6L7vVvbieEEEJ0RZ0/MDW7DIEq5t/mAnRDpQD0FjKMbiREK9G4gKpPd+YGWcn6rgMzPh0UcacH0epu4NINlX20lF6uxITYflEFuBJa14i+rlWjX9DZnZvZe0c8Lz8YjAoVwbPjmFi9m8+bZnwUQ5jycLDtZ/+JzNCeYfe+U/bfRzLl3mDbWAZMYcoIM6dOVdsbts8rOo6EYV6g8GdKzAgoP2WfnfInOACO7drON5VA70EE927bVgghhOhqfsxcxg3WDU2vW1C3LrrQiN5cxzOvtdpoY4Wwvpdbfu+oxqu3Cep1lUzp7oLmKsU3whl9NeZ9i4nov6y5zGzuQ3w14A/ghVfzNikVXl4qzFVGIBhz4XZWvprK54XVoABzeTWDxjQd2z5vf3/bHiwAFdC8MdyLGe9+hur1ZTw5MgX/BxN46U9xDPFqqhdCCCG6ni4UmK6ipwsaTyWrFvUk6scGGBcwt1pGM124emDq7PpovPB68B10aVNaAkyTagD7xm0vADNnz1ajGuoNnCL1vxZTOGsPBz4IRgXsfiKQtFbNAVsQsvLj/lJ6DGLKix8z5elC0v7rAaa/Gozuz2MdjxJCCCG6jB8bMzoXjZKpHnWkHKxDbwUaL6M/XUfRpVbH9HBBc66eHJNts7fZCtANP3U3Sk/VUWQFzHVsyG9o3gzdlfhPnsGQw6mszDpl67+5msKcb+zLY4D1Gza/d4hqwHw8jbSc/kyMDgarEWO1O/4BXqiA6qMppGY5LMd5+eOvOsbeHHt5hwboFIf2FVJtBbz8CfZ3x3yxQw2FEEKITqvTB6bSQybGrali5j8aKPrHeQavMZB43D415OLK/Jk9iCq9SMzKSkJfqWJqpoWilovfILg7ibc3kvTXKkJfMZBgv6ItbJgHczET80olw96+hCrSjTAXgEZ2bjUwbGU1Sacvs+njKoYlm0ivavWa10Hh2uncFR6I75RUTh1dyajAUCLHLmOvFQr/EktkeCC+Y1P4pjCFCYGhRI6y1REQx/vvTuTsq+MJ9PXFN3Q0C9MLbZNLgEo1lnt7pDAh1JfAB9Lw+tPbJAwGFEOYu+RejsWH4hsYSuxbKiZO7t+qR4BqLItWjLAd0yeQ0D/udp6ZrEYOvzGdiEBffH0jePr4vbz5rG1juxBCCNFVdTOZTO2uRXXv3t2xSHQV1ZuJDd/ODN3HzOjhWCmEEEKIjqiqqur8M0xCCCGEEDeaBCYhhBBCCCdkSU4IIYQQoh2yJCeEEEII0QH/DwSra5KMm/aKAAAAAElFTkSuQmCC;" vertex="1" parent="WIyWlLk6GJQsqaUBKTNV-1">
          <mxGeometry x="360" y="5" width="391" height="260" as="geometry" />
        </mxCell>
        <mxCell id="s_xDTOq8JZx-aqZbNe94-8" value="&lt;font style=&quot;font-size: 13px;&quot;&gt;Will be added to the lambda_function similarly&lt;br&gt;to how dblink-s3-img-log already updates databases&lt;/font&gt;" style="text;html=1;align=left;verticalAlign=middle;resizable=0;points=[];autosize=1;strokeColor=none;fillColor=none;fontColor=#FF6666;fontStyle=1" vertex="1" parent="WIyWlLk6GJQsqaUBKTNV-1">
          <mxGeometry x="414" y="340" width="350" height="40" as="geometry" />
        </mxCell>
        <mxCell id="s_xDTOq8JZx-aqZbNe94-9" value="&lt;font color=&quot;#0066cc&quot; style=&quot;font-size: 13px;&quot;&gt;i.e. dog, generic mammal, etc.&lt;/font&gt;" style="text;html=1;align=center;verticalAlign=middle;resizable=0;points=[];autosize=1;strokeColor=none;fillColor=none;fontStyle=1" vertex="1" parent="WIyWlLk6GJQsqaUBKTNV-1">
          <mxGeometry x="267.5" y="575" width="210" height="30" as="geometry" />
        </mxCell>
      </root>
    </mxGraphModel>
  </diagram>
</mxfile>
